<?xml version="1.0" encoding="UTF-8"?>
<svg version="1.1" xmlns="http://www.w3.org/2000/svg" width="3125" height="1875">
<path d="M0 0 C0 50.16 0 100.32 0 152 C16.83 152.495 16.83 152.495 34 153 C78.47163586 156.44741363 121.566412 164.21469022 164 178 C165.00740234 178.32436035 166.01480469 178.6487207 167.05273438 178.98291016 C226.77507867 198.39769918 282.31101646 229.468819 331 269 C331.88429688 269.70898438 332.76859375 270.41796875 333.6796875 271.1484375 C339.36136237 275.73562542 344.83534029 280.49018994 350.19921875 285.4453125 C351.64275974 286.76201516 353.08994992 288.07601539 354.58227539 289.3371582 C361.43097115 295.14657571 367.70083289 301.55046372 374.03637695 307.90600586 C376.05764268 309.9326298 378.08419574 311.95385547 380.11132812 313.97460938 C386.28424013 320.1440526 392.40311988 326.29446623 398 333 C398.87627122 334.01027228 399.75382182 335.01943666 400.6328125 336.02734375 C408.10912504 344.75752062 415.10419819 353.80690771 422 363 C422.58217285 363.77182617 423.1643457 364.54365234 423.76416016 365.33886719 C431.9953368 376.26727827 439.78876934 387.37146335 447 399 C447.58491211 399.94238525 447.58491211 399.94238525 448.18164062 400.90380859 C454.45975902 411.07767592 460.29398574 421.49676227 466 432 C466.44102051 432.80679199 466.88204102 433.61358398 467.33642578 434.44482422 C508.43991277 509.94193168 529.83111196 599.21269875 505.14892578 835.00610352 C488.41518427 890.37872556 462.01536503 945.25183453 426.48095703 991.07470703 C424.40523058 993.77321985 422.38024846 996.50841736 420.35131836 999.2421875 C413.02014047 1009.10548886 405.37744768 1018.59819208 397.09765625 1027.6875 C395.30492554 1029.66384372 393.55204773 1031.6645673 391.8125 1033.6875 C380.99847895 1046.08222482 369.67088432 1058.45039868 357.1484375 1069.1328125 C354.96810437 1071.0277202 352.84643522 1072.97909863 350.72973633 1074.94458008 C344.68310028 1080.55281826 338.46992931 1085.88176954 332 1091 C331.35289062 1091.51433594 330.70578125 1092.02867188 330.0390625 1092.55859375 C319.28390734 1101.08786515 308.32317397 1109.24076976 297 1117 C296.35434082 1117.44327637 295.70868164 1117.88655273 295.04345703 1118.34326172 C286.58163149 1124.12907 277.96214382 1129.59666 269.11083984 1134.76660156 C267.64291329 1135.62433519 266.17725248 1136.48595337 264.71337891 1137.35058594 C201.5850612 1174.58108944 129.98733105 1198.51722006 57 1206 C56.09233887 1206.09619629 55.18467773 1206.19239258 54.24951172 1206.29150391 C36.16074412 1208.15778043 18.22496487 1208.44772834 0 1209 C0 1259.49 0 1309.98 0 1362 C-33.90007523 1362 -33.90007523 1362 -44.625 1361.25 C-46.59255249 1361.11694458 -46.59255249 1361.11694458 -48.59985352 1360.98120117 C-127.68015513 1355.4023967 -205.28134002 1336.20416717 -297 1295 C-297.59296875 1294.71447266 -298.1859375 1294.42894531 -298.796875 1294.13476562 C-316.67218862 1285.51765769 -334.02713703 1276.30698271 -351 1266 C-351.89477051 1265.46165527 -352.78954102 1264.92331055 -353.71142578 1264.36865234 C-379.30533705 1248.95046417 -403.71351355 1231.71554569 -427 1213 C-427.928125 1212.25492188 -428.85625 1211.50984375 -429.8125 1210.7421875 C-441.38907798 1201.35304431 -452.58075065 1191.58378807 -463.47363281 1181.41308594 C-464.88363599 1180.10772791 -466.3121441 1178.82243478 -467.7421875 1177.5390625 C-474.64533963 1171.33991455 -481.24330411 1164.86298185 -487.8125 1158.3125 C-489.15634766 1156.97554077 -489.15634766 1156.97554077 -490.52734375 1155.61157227 C-494.99122065 1151.1372852 -499.31657781 1146.60751979 -503.43334961 1141.81176758 C-505.83727861 1139.03172128 -508.36125982 1136.36783625 -510.875 1133.6875 C-516.17369255 1127.98520736 -521.12995843 1122.07360339 -526 1116 C-526.97110966 1114.81903903 -527.94386799 1113.63943251 -528.91796875 1112.4609375 C-587.69637018 1041.16390194 -632.06583263 956.97288891 -681 730 C-681.08612549 728.72205566 -681.17225098 727.44411133 -681.26098633 726.12744141 C-682.1707885 711.67555666 -682.20005221 697.22607244 -682.1875 682.75 C-682.18689575 681.46253876 -682.1862915 680.17507751 -682.18566895 678.84860229 C-682.16142288 659.81499569 -681.8880852 640.95268137 -680 622 C-679.86965944 620.64389291 -679.73945654 619.28777258 -679.609375 617.93164062 C-672.11334605 540.96032917 -652.34090017 465.7064563 -615 386 C-614.45230957 384.86079102 -613.90461914 383.72158203 -613.34033203 382.54785156 C-605.29233642 365.90078503 -596.54758315 349.82979239 -587 334 C-585.797902 331.98584123 -584.59608053 329.97151741 -583.39453125 327.95703125 C-576.64008244 316.68983283 -569.61618061 305.70249489 -562 295 C-561.13778974 293.7775067 -560.27580962 292.55485106 -559.4140625 291.33203125 C-541.09136037 265.42365332 -521.12884239 240.78321388 -499.47509766 217.58837891 C-497.9985417 215.99842971 -496.53464779 214.39773401 -495.07421875 212.79296875 C-485.93198174 202.76335682 -476.61790523 192.73354005 -466.2421875 183.9609375 C-463.65444456 181.69778949 -461.16134099 179.34683194 -458.66137695 176.98754883 C-452.83931549 171.49385595 -446.96829622 166.1797715 -440.70703125 161.18359375 C-438.30291497 159.24434267 -435.96009803 157.24910663 -433.62670898 155.22583008 C-424.46721134 147.31580971 -414.73982431 140.17291545 -405 133 C-404.24557617 132.44022461 -403.49115234 131.88044922 -402.71386719 131.30371094 C-386.09889843 118.98507829 -368.77990447 107.56952203 -351 97 C-350.35305176 96.61489258 -349.70610352 96.22978516 -349.03955078 95.83300781 C-275.62365265 52.29860915 -195.17749661 22.56536257 0 0 Z M-243 212 C-243.85110352 212.42764648 -244.70220703 212.85529297 -245.57910156 213.29589844 C-295.6022175 238.59372689 -339.93525051 273.96238083 -379.5 313.375 C-380.75526489 314.62325562 -380.75526489 314.62325562 -382.03588867 315.89672852 C-386.89766597 320.77119083 -391.52094194 325.77397791 -396 331 C-397.02149592 332.15666551 -398.04489139 333.31165662 -399.0703125 334.46484375 C-406.58628254 342.98229335 -413.60226136 351.78957513 -420.40917969 360.88134766 C-421.97318882 362.96429291 -423.55090477 365.03609541 -425.1328125 367.10546875 C-431.79069877 375.84301889 -438.07444944 384.75041302 -444 394 C-444.4748584 394.73718262 -444.9497168 395.47436523 -445.43896484 396.23388672 C-499.84462723 481.10531285 -529.18520211 579.85396579 -529.25 680.75 C-529.25100708 681.8451593 -529.25201416 682.9403186 -529.25305176 684.06866455 C-529.2020522 766.63244981 -509.12708589 847.37731531 -472 921 C-471.2570166 922.47968262 -471.2570166 922.47968262 -470.49902344 923.98925781 C-461.21175626 942.39049831 -450.72336562 960.04735038 -439 977 C-438.525625 977.68690918 -438.05125 978.37381836 -437.5625 979.08154297 C-426.54165097 994.98500122 -414.72847604 1010.13740834 -402.1875 1024.875 C-401.53225342 1025.64928345 -401.53225342 1025.64928345 -400.86376953 1026.43920898 C-391.76478831 1037.06539302 -382.05212987 1047.13457533 -372.16333008 1057.02197266 C-370.42955057 1058.75795956 -368.70398462 1060.5018511 -366.97851562 1062.24609375 C-361.0299091 1068.22386529 -355.01692011 1073.8582313 -348.38549805 1079.08203125 C-345.9466615 1081.04288478 -343.65930634 1083.11220969 -341.375 1085.25 C-334.31299312 1091.66697318 -326.63232824 1097.28813618 -319 1103 C-318.22382324 1103.58507324 -317.44764648 1104.17014648 -316.64794922 1104.77294922 C-236.67127133 1165.01490824 -141.27910669 1198.75110175 -42 1208 C-40.82219971 1208.11021484 -40.82219971 1208.11021484 -39.62060547 1208.22265625 C-26.74442832 1209.36910252 -13.95684105 1209 -1 1209 C-1 1160.82 -1 1112.64 -1 1063 C-5.39920615 1062.26679897 -9.36825023 1061.80650066 -13.78515625 1061.60546875 C-15.11893837 1061.53957944 -16.4526772 1061.47280946 -17.78637695 1061.40527344 C-18.48268219 1061.37042847 -19.17898743 1061.3355835 -19.89639282 1061.29968262 C-70.22205203 1058.69331844 -119.08793348 1046.76955403 -165 1026 C-166.44802002 1025.3488623 -166.44802002 1025.3488623 -167.92529297 1024.68457031 C-197.44332759 1011.29820629 -224.6612545 994.18160598 -250 974 C-251.40958984 972.88044922 -251.40958984 972.88044922 -252.84765625 971.73828125 C-258.57135071 967.12551483 -264.05459871 962.30023584 -269.4609375 957.3203125 C-271.54494903 955.41584658 -273.65871086 953.57384698 -275.8125 951.75 C-284.85059982 943.88834706 -293.2837853 935.15256635 -301 926 C-301.84304688 925.04609375 -302.68609375 924.0921875 -303.5546875 923.109375 C-348.59373476 871.97073204 -379.36077514 807.89676067 -390.75 740.75 C-390.94875732 739.58001465 -391.14751465 738.4100293 -391.35229492 737.20458984 C-394.29111399 718.97710938 -395.38091951 700.95332743 -395.3125 682.5 C-395.30926727 680.92244431 -395.30926727 680.92244431 -395.30596924 679.3130188 C-395.2515097 662.7004991 -394.67811267 646.42769837 -392 630 C-391.70996094 628.18918945 -391.70996094 628.18918945 -391.4140625 626.34179688 C-384.79489463 586.32034668 -371.35397164 549.09465747 -353 513 C-352.56751953 512.1450293 -352.13503906 511.29005859 -351.68945312 510.40917969 C-341.69451955 490.89328194 -328.8637261 471.9641594 -315 455 C-314.27039063 454.08089844 -313.54078125 453.16179687 -312.7890625 452.21484375 C-307.94123006 446.16781066 -302.81353515 440.4369334 -297.54296875 434.76171875 C-295.53828926 432.58459371 -293.598748 430.38287232 -291.6875 428.125 C-283.86251912 419.10926116 -275.14474637 410.66367634 -266 403 C-265.11957031 402.23042969 -264.23914063 401.46085938 -263.33203125 400.66796875 C-241.79533775 381.93276778 -218.00169943 365.73312165 -193 352 C-192.12682129 351.51821289 -191.25364258 351.03642578 -190.35400391 350.54003906 C-136.34063681 320.95922836 -74.81345982 304.10507912 -13.24291992 302.29003906 C-12.36095947 302.26393555 -11.47899902 302.23783203 -10.5703125 302.2109375 C-9.80477051 302.19337402 -9.03922852 302.17581055 -8.25048828 302.15771484 C-5.52094226 302.01432885 -5.52094226 302.01432885 -1 301 C-1 252.16 -1 203.32 -1 153 C-81.48317568 153 -160.8764639 171.53667665 -243 212 Z M2 305 C2 352.52 2 400.04 2 449 C12.23 449.99 22.46 450.98 33 452 C89.54742854 462.25615125 141.89641607 489.49238602 178 535 C178.65613281 535.78890625 179.31226563 536.5778125 179.98828125 537.390625 C218.47391687 583.97444045 234.24664325 645.12048923 229.53125 704.71484375 C223.98480954 762.02954091 195.55920931 820.21734407 150.9375 857.3125 C149.51437299 858.4465857 148.09067843 859.58002911 146.65771484 860.70166016 C145.46695549 861.63427551 144.28024787 862.5720728 143.09619141 863.51318359 C133.46989312 871.15401477 123.74764365 878.03755417 113 884 C112.29713867 884.39783691 111.59427734 884.79567383 110.87011719 885.20556641 C76.4928224 904.57018323 41.19944008 911.73337999 2 915 C2 961.53 2 1008.06 2 1056 C21.25059845 1055.37618897 21.25059845 1055.37618897 40.375 1053.75 C42.03631958 1053.55603638 42.03631958 1053.55603638 43.73120117 1053.3581543 C83.67202028 1048.45749216 122.73188906 1037.50344632 159 1020 C159.69448242 1019.66790527 160.38896484 1019.33581055 161.10449219 1018.99365234 C165.78142093 1016.74680483 170.40238046 1014.40457978 175 1012 C175.67643555 1011.64921387 176.35287109 1011.29842773 177.04980469 1010.93701172 C202.30900002 997.73147149 225.62244602 980.80101464 247 962 C248.38638672 960.78183594 248.38638672 960.78183594 249.80078125 959.5390625 C263.0747406 947.60535077 276.03508837 935.10716085 287 921 C288.57988537 919.14289454 290.1634403 917.28890671 291.75 915.4375 C307.45848072 896.5678699 320.5120924 875.6572032 332 854 C332.34482422 853.3503125 332.68964844 852.700625 333.04492188 852.03125 C335.47581312 847.40639648 337.77115817 842.72526915 340 838 C340.37592285 837.20658203 340.7518457 836.41316406 341.13916016 835.59570312 C377.63180962 757.62123314 384.95069741 665.90572067 352.71289062 553.43652344 C337.53121073 512.70011107 316.49766709 475.2309576 288.54541016 441.85400391 C287.13230895 440.15872894 285.74147243 438.44789669 284.35546875 436.73046875 C277.69363561 428.59495362 270.34662129 421.13565027 262.9375 413.6875 C262.43052582 413.17525879 261.92355164 412.66301758 261.4012146 412.13525391 C255.33388318 406.01923667 249.13822557 400.29837004 242.39624023 394.91479492 C240.48176693 393.38497178 238.61915298 391.83086652 236.78515625 390.20703125 C213.81900911 370.00868376 186.52549439 354.14697131 159 341 C157.8874585 340.46656982 157.8874585 340.46656982 156.75244141 339.92236328 C121.2519784 323.04753669 83.26380514 312.56574763 44.3125 307.6875 C43.06927979 307.52805908 41.82605957 307.36861816 40.54516602 307.2043457 C27.65172526 305.70522378 15.09124427 305.50350939 2 305 Z M-159 513 C-159.53189941 513.44311523 -160.06379883 513.88623047 -160.61181641 514.34277344 C-171.24383758 523.21711729 -181.12868073 532.3670074 -189.7890625 543.23046875 C-191.23776804 545.04519001 -192.71113988 546.84055226 -194.2109375 548.61328125 C-230.42089782 591.49349742 -246.94670335 647.11644784 -242.71582031 702.73583984 C-237.91514922 747.96897266 -216.78096043 791.39244984 -186.08984375 824.7265625 C-184.14128585 826.84630212 -182.25242667 829.00483469 -180.375 831.1875 C-174.68035635 837.68823476 -168.59800746 843.28933364 -161.8515625 848.69921875 C-160.07427864 850.13321901 -158.31526887 851.5905529 -156.5859375 853.08203125 C-113.12455369 890.26565962 -58.19997794 907.04210642 -2 910 C-2 861.16 -2 812.32 -2 762 C0.97 762 3.94 762 7 762 C28.87663581 759.01351143 47.09834363 747.86161226 61.25 731.25 C74.99266185 713.15549524 80.38968934 691.62828699 77.50390625 669.1328125 C73.15702938 647.07916599 60.68926776 627.59950635 42 615 C28.2387608 606.38314929 14.35740239 602 -2 602 C-2 553.16 -2 504.32 -2 454 C-59.01273349 454 -115.63845291 476.562855 -159 513 Z " fill="#0F171F" transform="translate(786,257)"/>
<path d="M0 0 C11.22 0 22.44 0 34 0 C41.03203876 35.4810587 47.98483997 70.97601406 54.796875 106.5 C55.12596409 108.21563862 55.45506057 109.93127583 55.78416443 111.64691162 C58.62670906 126.4666332 61.46556701 141.28706074 64.30154729 156.10803986 C65.98671556 164.91475645 67.67354409 173.72115121 69.36363721 182.52692413 C70.30999438 187.45837253 71.25369764 192.39031865 72.19533682 197.32266998 C72.77257348 200.34298126 73.35225972 203.36281838 73.93266296 206.38252258 C74.20098418 207.78123799 74.46827934 209.18015067 74.73448944 210.57926941 C75.09637276 212.48044992 75.46222601 214.38087352 75.82830811 216.28125 C76.03173199 217.34408203 76.23515587 218.40691406 76.44474411 219.50195312 C76.89012629 221.98232417 76.89012629 221.98232417 78 224 C82.27810017 201.8642677 86.55573054 179.72844465 90.83283901 157.59252071 C93.01477185 146.30011624 95.19693901 135.0077571 97.3794235 123.71545923 C98.9167028 115.76135754 100.45363683 107.80718918 101.99038088 99.85298407 C102.92918567 94.99384002 103.86818039 90.13473283 104.80759811 85.27570724 C109.97004721 58.57565581 109.97004721 58.57565581 115.07080078 31.86376953 C115.29071843 30.70644223 115.51063608 29.54911493 115.7372179 28.35671711 C116.6988265 23.29466724 117.65684323 18.2320054 118.60655212 13.16770935 C118.92124405 11.50574273 119.23605802 9.84379921 119.55102539 8.18188477 C119.68688868 7.44810923 119.82275196 6.71433369 119.96273232 5.95832253 C120.88648012 1.11351988 120.88648012 1.11351988 122 0 C133.22 0 144.44 0 156 0 C156 206.58 156 413.16 156 626 C140.82 626 125.64 626 110 626 C109.67 491.69 109.34 357.38 109 219 C100.75 251.34 92.5 283.68 84 317 C83.67 317.66 83.34 318.32 83 319 C79.37 319 75.74 319 72 319 C71.73326477 317.95589462 71.46652954 316.91178925 71.19171143 315.83604431 C68.66259804 305.9365403 66.13265229 296.03724933 63.60191727 286.13815975 C62.30125855 281.05046318 61.00088061 275.96269521 59.70117188 270.87475586 C58.4439709 265.95326564 57.18599644 261.03197369 55.92751312 256.11081123 C55.45047912 254.24487737 54.97371142 252.3788754 54.49723053 250.51280022 C53.82343011 247.87414975 53.14863257 245.23575599 52.47363281 242.59741211 C52.28229767 241.84717773 52.09096252 241.09694336 51.89382935 240.32397461 C49.98400394 232.86705843 47.98376183 225.43910688 46 218 C45.67 352.64 45.34 487.28 45 626 C30.15 626 15.3 626 0 626 C0 419.42 0 212.84 0 0 Z " fill="#0F1720" transform="translate(1456,422)"/>
<path d="M0 0 C11.22 0 22.44 0 34 0 C37.3750342 14.62514822 37.3750342 14.62514822 38.56646729 20.80615234 C38.69884883 21.48944139 38.83123037 22.17273043 38.96762347 22.8767252 C39.40024442 25.11270483 39.82954003 27.34930833 40.25878906 29.5859375 C40.57279173 31.21256836 40.88700175 32.8391592 41.20140076 34.4657135 C42.04885191 38.85324026 42.89337806 43.2413253 43.7373209 47.62952805 C44.63059168 52.27164585 45.52649108 56.91325639 46.42205811 61.55493164 C47.92992269 69.37209237 49.43603053 77.18958984 50.94091797 85.00732422 C52.84931773 94.92122913 54.76043901 104.83460718 56.67251968 114.74780273 C58.33938797 123.38975057 60.00509096 132.03192295 61.67055798 140.67414093 C62.19365996 143.38838824 62.71688569 146.10261168 63.24011993 148.8168335 C65.02471678 158.07579185 66.80593326 167.33538519 68.57990336 176.59638596 C69.5592527 181.70766925 70.54365937 186.81795326 71.5308001 191.92773724 C72.19484921 195.37031619 72.85497709 198.81363905 73.51413107 202.25715828 C73.82621279 203.88327776 74.13988095 205.50909368 74.45524073 207.13458061 C74.88872814 209.37025491 75.31646916 211.60695696 75.74285889 213.84399414 C75.98649548 215.1097377 76.23013206 216.37548126 76.48115158 217.67958069 C76.92695121 220.53251741 77.1101328 223.1226771 77 226 C77.66 226 78.32 226 79 226 C79.1027977 224.68531738 79.2055954 223.37063477 79.31150818 222.01611328 C80.06781119 214.51006375 81.57936534 207.14045884 83.01586914 199.7421875 C83.32853757 198.11437184 83.64081295 196.48648064 83.95272827 194.85852051 C84.79839827 190.45070648 85.64951505 186.04395999 86.50160146 181.63738251 C87.40197943 176.97583999 88.29719809 172.31330678 89.19297791 167.65087891 C90.89756159 158.78282482 92.60659984 149.91563546 94.3173098 141.04876137 C96.42026429 130.14779241 98.51787512 119.24579663 100.61523438 108.34375 C101.36246226 104.45979033 102.10972627 100.57583761 102.85704041 96.69189453 C103.03947577 95.7437343 103.22191114 94.79557407 103.40987486 93.81868172 C104.6346183 87.45423468 105.86090989 81.09008732 107.08790588 74.72607422 C107.58748042 72.13409243 108.08701214 69.54210239 108.58651912 66.95010757 C108.91216721 65.26067697 109.23794725 63.57127179 109.56386483 61.88189316 C111.47476202 51.97588769 113.36872818 42.0668999 115.23995972 32.15332031 C115.61087635 30.19185751 115.98182697 28.23040114 116.35281277 26.26895142 C117.06288508 22.51433865 117.76903357 18.75901562 118.47306156 15.00326538 C118.79268047 13.31155679 119.11243823 11.61987442 119.43235779 9.92822266 C119.57687484 9.15133213 119.72139189 8.3744416 119.87028825 7.57400894 C120.88633862 2.22732277 120.88633862 2.22732277 122 0 C133.22 0 144.44 0 156 0 C156 206.58 156 413.16 156 626 C141.15 626 126.3 626 111 626 C110.67 490.7 110.34 355.4 110 216 C99.605 257.085 99.605 257.085 89 299 C84 318 84 318 83 319 C81.31391034 319.07205511 79.62499341 319.08386068 77.9375 319.0625 C77.01839844 319.05347656 76.09929688 319.04445313 75.15234375 319.03515625 C74.44207031 319.02355469 73.73179687 319.01195312 73 319 C70.96392662 313.1185962 69.19271157 307.22882774 67.67163086 301.19482422 C67.35392479 299.95150833 67.35392479 299.95150833 67.02980042 298.68307495 C66.33841767 295.97438285 65.65163798 293.26454629 64.96484375 290.5546875 C64.48099401 288.65609805 63.99682219 286.75759065 63.51234436 284.85916138 C62.24279542 279.88139614 60.97701448 274.90268099 59.71221924 269.92370605 C57.68563443 261.94860867 55.65323123 253.97499209 53.62094307 246.00134659 C52.91412472 243.22594677 52.20887584 240.45015193 51.50389099 237.67428589 C51.06894842 235.96497865 50.63397777 234.25567854 50.19897461 232.54638672 C50.00516205 231.78152954 49.81134949 231.01667236 49.61166382 230.2286377 C49.42813858 229.50840424 49.24461334 228.78817078 49.05552673 228.04611206 C48.89903121 227.43006041 48.74253569 226.81400875 48.58129787 226.17928886 C47.76212924 223.10822123 46.87318518 220.05614811 46 217 C45.67 351.97 45.34 486.94 45 626 C30.15 626 15.3 626 0 626 C0 419.42 0 212.84 0 0 Z " fill="#0F171F" transform="translate(2865,422)"/>
<path d="M0 0 C12.54 0 25.08 0 38 0 C39.74461478 4.65230607 41.39062254 9.0535395 42.76733398 13.7800293 C43.08369812 14.86065643 43.40006226 15.94128357 43.72601318 17.05465698 C44.06263977 18.21611237 44.39926636 19.37756775 44.74609375 20.57421875 C45.10938782 21.81865753 45.47268188 23.06309631 45.84698486 24.34524536 C46.840097 27.7476098 47.82932861 31.1510912 48.81777573 34.55481339 C49.65112742 37.42266621 50.48672687 40.28986196 51.32236195 43.15705013 C53.99265357 52.31925405 56.65572188 61.48354949 59.31704712 70.64836121 C59.99854625 72.99499426 60.68026321 75.34156392 61.36206055 77.68811035 C64.47311721 88.3954931 67.581631 99.10361132 70.6875 109.8125 C70.89431774 110.52552151 71.10113548 111.23854301 71.31422043 111.97317123 C72.52551077 116.14947176 73.73606097 120.32598578 74.94567108 124.50277328 C75.4733425 126.32453871 76.00145499 128.14617637 76.52960205 129.96780396 C80.38887946 143.30178043 84.18645296 156.65258537 88 170 C88.33 113.9 88.66 57.8 89 0 C104.18 0 119.36 0 135 0 C135 206.58 135 413.16 135 626 C119.82 626 104.64 626 89 626 C89.02300171 621.66356354 89.04600342 617.32712708 89.06970215 612.85928345 C89.27428109 572.86575489 89.39753242 532.87260656 89.434863 492.87856052 C89.43985256 487.61044587 89.44554022 482.3423322 89.45166016 477.07421875 C89.45346968 475.50138967 89.45346968 475.50138967 89.45531577 473.89678626 C89.47636872 457.03642459 89.55365523 440.1767838 89.65263933 423.31671996 C89.75332293 405.94807375 89.79145615 388.58005618 89.77444887 371.21112382 C89.76664099 361.48372252 89.78579132 351.75807629 89.87687683 342.03105545 C90.24642486 301.00030861 89.9709509 264.49472771 73.99804306 225.9861393 C70.93452361 218.52198088 68.58902143 210.8165942 66.19316506 203.11828029 C64.99800347 199.30523636 63.75524103 195.50775732 62.515625 191.70898438 C62.03563183 190.23207199 61.55579268 188.75510953 61.07617188 187.27807617 C60.33972171 185.01173959 59.60320054 182.7454261 58.86663818 180.47912598 C57.36562308 175.86048949 55.86558584 171.2415378 54.36692429 166.62213707 C53.68655688 164.52632326 53.00477215 162.43097433 52.32290649 160.33564758 C51.91002036 159.06338896 51.49720503 157.79110735 51.08447266 156.51879883 C50.72858063 155.42384598 50.3726886 154.32889313 50.00601196 153.20075989 C48.94312466 149.8190436 47.97383639 146.40842737 47 143 C46.67 302.39 46.34 461.78 46 626 C30.82 626 15.64 626 0 626 C0 419.42 0 212.84 0 0 Z " fill="#101720" transform="translate(2243,422)"/>
<path d="M0 0 C12.54 0 25.08 0 38 0 C43.75321713 18.50499265 49.2289944 37.05547383 54.5625 55.6875 C65.61827382 94.15100052 76.81283203 132.57451003 88 171 C88.495 86.355 88.495 86.355 89 0 C103.85 0 118.7 0 134 0 C134 206.58 134 413.16 134 626 C119.15 626 104.3 626 89 626 C89.03854599 621.72272446 89.07709198 617.44544891 89.11680603 613.03855896 C89.46237153 573.47032509 89.68907811 533.90274672 89.79232031 494.33311471 C89.8060601 489.10708362 89.82080837 483.88105583 89.83618164 478.6550293 C89.83922417 477.61497571 89.84226669 476.57492212 89.84540141 475.50335176 C89.89652848 458.84101017 90.02863606 442.18030311 90.1927089 425.51873409 C90.36020797 408.31834286 90.43597402 391.11915988 90.43306834 373.91794926 C90.43390384 364.2991149 90.47249238 354.68403157 90.61698723 345.06619072 C91.26721887 300.10980332 87.65202725 261.61471641 71.80006409 219.32679749 C62.34757457 193.85146978 54.32920732 167.86438062 46 142 C45.67 301.72 45.34 461.44 45 626 C30.15 626 15.3 626 0 626 C0 419.42 0 212.84 0 0 Z " fill="#0F171F" transform="translate(2421,422)"/>
<path d="M0 0 C15.18 0 30.36 0 46 0 C46.00586624 7.12545914 46.01173248 14.25091827 46.01777649 21.59230042 C46.05750495 68.63811557 46.10056157 115.68392496 46.15898132 162.72972107 C46.16047467 163.93359707 46.16047467 163.93359707 46.16199819 165.1617938 C46.18365581 182.60334233 46.20597844 200.04488995 46.22898628 217.48643676 C46.24026498 226.03954166 46.2513967 234.59264676 46.26245117 243.14575195 C46.26410502 244.42246949 46.26410502 244.42246949 46.26579228 245.72497929 C46.3014724 273.32207769 46.32744359 300.91917486 46.34838969 328.51628805 C46.36996246 356.87160022 46.40131071 385.22688514 46.44499113 413.58217229 C46.45115354 417.58548652 46.45720399 421.5888009 46.46318626 425.5921154 C46.46436715 426.38003922 46.46554803 427.16796303 46.46676469 427.97976332 C46.48549945 440.67246309 46.49390337 453.36514977 46.49846124 466.05786167 C46.50326127 478.81269052 46.51890387 491.56746934 46.54566566 504.32227135 C46.55986885 511.23539308 46.56923385 518.14843953 46.56500816 525.06157684 C46.56160931 531.38614323 46.57189715 537.71053177 46.59323552 544.03506171 C46.59852357 546.32722421 46.59871734 548.61940509 46.59339563 550.91156752 C46.58691163 554.02018019 46.59874287 557.12820072 46.61523914 560.23676395 C46.60896245 561.13285176 46.60268575 562.02893957 46.59621885 562.95218155 C46.64955044 568.38481783 47.40069386 572.19605712 50 577 C54.32858798 580.82526379 58.36649483 581.76269117 64 582 C64.72445312 582.03996094 65.44890625 582.07992187 66.1953125 582.12109375 C72.53404545 582.30882626 79.10001098 582.00768471 84.4375 578.3125 C88.38293385 572.47325791 88.28944334 566.04867337 88.26171303 559.25238132 C88.26570909 558.28361979 88.26970515 557.31485825 88.27382231 556.3167403 C88.28481047 553.0633679 88.28159328 549.81016518 88.2784729 546.55677795 C88.28347496 544.2037232 88.28935049 541.85067017 88.29602563 539.49761957 C88.31019088 533.70462518 88.31510406 527.91167416 88.31615174 522.11866376 C88.31793245 515.1794979 88.33128886 508.2403667 88.3450741 501.30121603 C88.37019117 488.49528567 88.38605835 475.68935944 88.39665604 462.8834095 C88.40717947 450.20369641 88.42181277 437.52399904 88.44193649 424.84429741 C88.44318536 424.05594727 88.44443423 423.26759713 88.44572094 422.45535759 C88.45208468 418.45173465 88.45852186 414.44811183 88.46498732 410.44448905 C88.51065144 382.08596639 88.54709848 353.72743862 88.578125 325.36889648 C88.60828815 297.81875867 88.64262632 270.26863124 88.68261719 242.71850586 C88.68384819 241.86930873 88.68507919 241.0201116 88.6863475 240.14518122 C88.69871434 231.61720389 88.71116607 223.08922668 88.72367998 214.56124957 C88.7491704 197.18873719 88.77409426 179.81622401 88.79867554 162.44371033 C88.8003719 161.24556708 88.8003719 161.24556708 88.80210253 160.02321891 C88.8775593 106.68215773 88.93935531 53.34107977 89 0 C103.85 0 118.7 0 134 0 C134.05072632 55.22136902 134.09912064 110.44273764 134.12702942 165.66412354 C134.12744359 166.48152436 134.12785776 167.29892519 134.12828448 168.14109574 C134.13726338 185.90576856 134.1455739 203.67044163 134.15319599 221.43511508 C134.15693797 230.14701037 134.16082764 238.85890559 134.16479492 247.57080078 C134.1651872 248.43773528 134.16557948 249.30466977 134.16598364 250.19787501 C134.1787658 278.29355863 134.20129833 306.38922413 134.22889166 334.48489678 C134.2571978 363.35882813 134.27565828 392.23274945 134.28174497 421.10669445 C134.28260942 425.18570536 134.28358633 429.26471624 134.28463173 433.34372711 C134.28493513 434.54792914 134.28493513 434.54792914 134.28524467 435.77645849 C134.28878868 448.6950643 134.3026998 461.61363911 134.3204961 474.53223228 C134.33816942 487.52237195 134.34490103 500.5124809 134.34050413 513.50263217 C134.33822385 521.21863417 134.34429265 528.9345237 134.36239263 536.65050538 C134.37499129 542.41564094 134.37187058 548.18068336 134.36269668 553.94582143 C134.36142939 556.27576686 134.36523276 558.60572179 134.37464955 560.93564853 C134.4502125 580.78755046 132.88611747 596.59614715 118.5390625 611.7109375 C100.29580845 628.15793269 74.96387434 627.03305693 52 626 C38.75002616 624.73623652 23.03688299 619.20443893 14 609 C-0.19893458 591.76948462 -0.29835756 572.97197094 -0.24050903 551.72772217 C-0.24138181 549.34560483 -0.2431341 546.96348768 -0.24568737 544.58137155 C-0.24922019 539.41378899 -0.2465774 534.24624813 -0.23841095 529.07867241 C-0.22630178 521.39477578 -0.22574296 513.71090808 -0.22749493 506.02700365 C-0.23011814 493.09918817 -0.22345735 480.17139319 -0.21146011 467.24358368 C-0.19961608 454.44799447 -0.1919262 441.6524138 -0.18975449 428.85681915 C-0.18961701 428.06049463 -0.18947953 427.26417011 -0.18933788 426.44371454 C-0.18866119 422.39939622 -0.18805843 418.3550779 -0.18748413 414.31075957 C-0.18328606 385.68324146 -0.16981904 357.05573449 -0.15087891 328.42822266 C-0.13250292 300.62125711 -0.11833918 272.81429462 -0.10986328 245.00732422 C-0.10960023 244.14982038 -0.10933718 243.29231655 -0.10906615 242.40882775 C-0.10642906 233.79722825 -0.10387744 225.18562873 -0.10138843 216.57402919 C-0.09631634 199.03203899 -0.09067384 181.49004899 -0.08468628 163.94805908 C-0.0844117 163.14155043 -0.08413712 162.33504178 -0.08385422 161.50409347 C-0.06546055 107.66939074 -0.03331364 53.83469527 0 0 Z " fill="#0F171F" transform="translate(2687,422)"/>
<path d="M0 0 C44.22 0 88.44 0 134 0 C134 14.85 134 29.7 134 45 C104.63 45 75.26 45 45 45 C45 113.97 45 182.94 45 254 C70.74 254 96.48 254 123 254 C123 268.85 123 283.7 123 299 C97.26 299 71.52 299 45 299 C45 392.39 45 485.78 45 582 C74.37 582 103.74 582 134 582 C134 596.52 134 611.04 134 626 C89.78 626 45.56 626 0 626 C0 419.42 0 212.84 0 0 Z " fill="#0F171F" transform="translate(2077,422)"/>
<path d="M0 0 C15.18 0 30.36 0 46 0 C46 192.06 46 384.12 46 582 C75.37 582 104.74 582 135 582 C135 596.52 135 611.04 135 626 C90.45 626 45.9 626 0 626 C0 419.42 0 212.84 0 0 Z " fill="#0F1720" transform="translate(1910,422)"/>
<path d="M0 0 C14.85 0 29.7 0 45 0 C45 192.06 45 384.12 45 582 C74.37 582 103.74 582 134 582 C134 596.52 134 611.04 134 626 C89.78 626 45.56 626 0 626 C0 419.42 0 212.84 0 0 Z " fill="#0F171F" transform="translate(1744,422)"/>
<path d="M0 0 C15.18 0 30.36 0 46 0 C46 206.58 46 413.16 46 626 C30.82 626 15.64 626 0 626 C0 419.42 0 212.84 0 0 Z " fill="#0F1720" transform="translate(1655,422)"/>
<path d="M0 0 C14.85 0 29.7 0 45 0 C45 206.58 45 413.16 45 626 C29.82 626 14.64 626 -1 626 C-1.01705274 566.42854375 -1.03303126 506.8570873 -1.04234314 447.28562927 C-1.0424812 446.40468137 -1.04261925 445.52373346 -1.04276149 444.61609016 C-1.04575404 425.47310894 -1.04852427 406.33012769 -1.05106533 387.1871464 C-1.05231272 377.80013861 -1.05360927 368.41313083 -1.05493164 359.02612305 C-1.0550624 358.09197712 -1.05519316 357.1578312 -1.05532788 356.19537782 C-1.05959317 325.88873571 -1.06710742 295.58209545 -1.07629722 265.27545447 C-1.08571976 234.14492052 -1.0918831 203.0143876 -1.09391499 171.88385225 C-1.09420317 167.492112 -1.0945288 163.10037176 -1.09487724 158.70863152 C-1.09494467 157.84422989 -1.09501209 156.97982826 -1.09508156 156.08923264 C-1.09626566 142.14565101 -1.10091013 128.20207256 -1.10683203 114.25849222 C-1.11270481 100.25812145 -1.11497162 86.25775383 -1.11350138 72.25738186 C-1.1127378 63.92811576 -1.11479514 55.59886117 -1.12079754 47.26959714 C-1.12496375 41.06748578 -1.12397511 34.86538569 -1.12089889 28.66327392 C-1.12047294 26.14106522 -1.12177084 23.61885558 -1.12488318 21.09664876 C-1.12884275 17.69238088 -1.12676616 14.28817127 -1.12304783 10.88390446 C-1.12567484 9.88381557 -1.12830186 8.88372668 -1.13100848 7.85333207 C-1.12876118 6.95519903 -1.12651389 6.05706598 -1.1241985 5.13171679 C-1.12435448 4.35196965 -1.12451046 3.57222251 -1.12467116 2.76884666 C-1 1 -1 1 0 0 Z " fill="#0F171F" transform="translate(2599,422)"/>
<path d="M0 0 C7.26 0 14.52 0 22 0 C25.09478888 10.70092673 28.18948254 21.40188099 31.28400993 32.10288334 C32.72101901 37.07210537 34.15806934 42.04131547 35.59521484 47.01049805 C36.98286705 51.8085546 38.37040971 56.60664281 39.75787735 61.40475273 C40.28649136 63.23272256 40.81514444 65.0606811 41.34383774 66.88862801 C42.08593753 69.45444907 42.82789678 72.02031073 43.56982422 74.58618164 C43.78705139 75.33712601 44.00427856 76.08807037 44.22808838 76.86177063 C44.4327774 77.56976807 44.63746643 78.2777655 44.84835815 79.00721741 C45.02349882 79.6128354 45.19863949 80.21845339 45.37908745 80.84242344 C46.25718241 83.89366971 47.12773751 86.94708128 48 90 C48.33 60.3 48.66 30.6 49 0 C57.58 0 66.16 0 75 0 C75 114.84 75 229.68 75 348 C66.42 348 57.84 348 49 348 C49.02300171 345.6304715 49.04600342 343.26094299 49.06970215 340.8196106 C49.28078427 318.26067593 49.3994502 295.70252264 49.43784332 273.14262581 C49.45969187 261.54991165 49.51069444 249.95881056 49.63427734 238.36669922 C52.1522288 171.23365506 52.1522288 171.23365506 35.08068848 107.16958237 C31.07631107 98.59782399 28.95281347 90.350576 26 81 C25.67 169.11 25.34 257.22 25 348 C16.75 348 8.5 348 0 348 C0 233.16 0 118.32 0 0 Z " fill="#0F171F" transform="translate(2163,1106)"/>
<path d="M0 0 C7.26 0 14.52 0 22 0 C22.53890869 1.87365234 23.07781738 3.74730469 23.63305664 5.67773438 C25.44473553 11.97609569 27.25683196 18.27433677 29.06919193 24.57250214 C30.16443985 28.37867251 31.25953712 32.18488608 32.35424805 35.99121094 C33.41724174 39.68723102 34.48068593 43.38312124 35.54440117 47.07893372 C35.94347564 48.46576118 36.34240661 49.85262995 36.74116707 51.23954773 C40.45909494 64.17007035 44.23270676 77.08356602 48 90 C48.33 60.3 48.66 30.6 49 0 C57.58 0 66.16 0 75 0 C75 114.84 75 229.68 75 348 C66.42 348 57.84 348 49 348 C49.02300171 345.6304715 49.04600342 343.26094299 49.06970215 340.8196106 C49.28078427 318.26067593 49.3994502 295.70252264 49.43784332 273.14262581 C49.45969187 261.54991165 49.51069444 249.95881056 49.63427734 238.36669922 C52.1522288 171.23365506 52.1522288 171.23365506 35.08068848 107.16958237 C31.07631107 98.59782399 28.95281347 90.350576 26 81 C25.67 169.11 25.34 257.22 25 348 C16.75 348 8.5 348 0 348 C0 233.16 0 118.32 0 0 Z " fill="#0F171F" transform="translate(1649,1106)"/>
<path d="M0 0 C0.94746094 -0.020625 1.89492187 -0.04125 2.87109375 -0.0625 C12.91956879 -0.11748482 21.72873671 1.89578481 29.1875 8.96875 C37.27877946 17.46459343 37.81629499 26.25627275 37.73576355 37.63258362 C37.73707364 38.97678829 37.7397038 40.32099221 37.74353105 41.66519207 C37.75020808 45.33906724 37.73828205 49.01267778 37.72319686 52.68651927 C37.71020034 56.65572291 37.71462851 60.62491252 37.71690369 64.59413147 C37.71847414 71.46447324 37.70908881 78.3347293 37.69219017 85.20504951 C37.66777378 95.1382755 37.6599922 105.07146019 37.6562262 115.00471293 C37.64966585 131.12206191 37.62971601 147.23936525 37.60131836 163.35668945 C37.57376699 179.01000745 37.55253869 194.66331303 37.53979492 210.31665039 C37.53900675 211.28207245 37.53821858 212.2474945 37.53740653 213.24217177 C37.53349132 218.08557507 37.52970022 222.92897846 37.52597082 227.7723819 C37.4948879 267.93162145 37.44123584 308.09080418 37.375 348.25 C28.795 348.25 20.215 348.25 11.375 348.25 C11.375 288.19 11.375 228.13 11.375 166.25 C3.785 166.25 -3.805 166.25 -11.625 166.25 C-11.625 226.31 -11.625 286.37 -11.625 348.25 C-20.205 348.25 -28.785 348.25 -37.625 348.25 C-37.67021074 307.49267577 -37.70601815 266.73535813 -37.72713066 225.97801387 C-37.72963208 221.16649488 -37.73222072 216.35497595 -37.73486328 211.54345703 C-37.7353879 210.58556817 -37.73591252 209.62767931 -37.73645304 208.64076352 C-37.74515621 193.12972994 -37.76092571 177.61871119 -37.77930559 162.1076864 C-37.79800707 146.19255405 -37.80911725 130.27742946 -37.81317699 114.36228657 C-37.81592153 104.54140452 -37.82459076 94.72056437 -37.84083293 84.89969522 C-37.85140287 78.16562817 -37.8546006 71.43158278 -37.85200275 64.69750804 C-37.85072148 60.81202696 -37.85268903 56.92661911 -37.86341095 53.04115105 C-37.87495521 48.82686532 -37.8709745 44.61273545 -37.86550903 40.3984375 C-37.87133472 39.17274583 -37.8771604 37.94705416 -37.88316262 36.68422031 C-37.84889592 26.9250882 -36.79417184 17.23245488 -30.16015625 9.5546875 C-21.66989836 1.6038107 -11.12932173 0.0591199 0 0 Z M-11.625 30.25 C-12.3446905 33.83664673 -12.25690547 37.36000341 -12.19262695 41.00708008 C-12.19335709 42.09045654 -12.19408722 43.17383301 -12.19483948 44.29003906 C-12.19135911 47.86704767 -12.15247396 51.44275041 -12.11328125 55.01953125 C-12.10395479 57.50102527 -12.09683789 59.98252851 -12.09184265 62.46403503 C-12.07276004 68.99251767 -12.02364701 75.52044334 -11.96832275 82.04870605 C-11.91445479 88.71140033 -11.89433447 95.37425663 -11.86914062 102.03710938 C-11.81553043 115.10835689 -11.7275829 128.17904497 -11.625 141.25 C-4.035 141.25 3.555 141.25 11.375 141.25 C11.46528989 126.71610662 11.53870977 112.18239884 11.58224869 97.64828873 C11.60287505 90.8998638 11.63099668 84.15162547 11.67675781 77.40332031 C11.72088058 70.89351854 11.74412335 64.38383801 11.75450897 57.87389374 C11.7619123 55.38751927 11.77636883 52.90115568 11.79792023 50.41486359 C11.8268643 46.93812425 11.83095964 43.46219157 11.82910156 39.98535156 C11.84348267 38.95244995 11.85786377 37.91954834 11.87268066 36.85534668 C11.91123772 31.39130004 11.91123772 31.39130004 9.55145264 26.61444092 C6.45647158 24.67416493 4.06698901 24.68362648 0.4375 24.6875 C-0.76777344 24.66558594 -1.97304687 24.64367188 -3.21484375 24.62109375 C-7.7124873 25.45055608 -8.90182772 26.57623936 -11.625 30.25 Z " fill="#0F171F" transform="translate(2983.625,1105.75)"/>
<path d="M0 0 C55.49056604 0 55.49056604 0 65.5625 7.3125 C76.40411407 18.15411407 75.2574764 32.87130603 75.27789307 47.23352051 C75.27431264 49.31193128 75.27021052 51.3903412 75.265625 53.46875 C75.26697528 55.63863163 75.26891882 57.80851295 75.27142334 59.97839355 C75.27435753 64.50694687 75.27013214 69.03542082 75.26074219 73.56396484 C75.24934878 79.33666046 75.25591742 85.10917002 75.26788712 90.88185883 C75.27515195 95.35684585 75.27279665 99.83178955 75.26763153 104.30677795 C75.2663078 106.43400597 75.26789742 108.56123806 75.27259064 110.6884613 C75.32561264 141.46731176 75.32561264 141.46731176 68 151 C67.34 151.99 66.68 152.98 66 154 C66.40992187 154.49628906 66.81984375 154.99257812 67.2421875 155.50390625 C74.19231829 164.26639172 75.12828668 173.53011478 75.12025452 184.45385742 C75.12110894 185.15898027 75.12196337 185.86410313 75.12284368 186.59059334 C75.12447722 188.92891185 75.11901231 191.26715696 75.11352539 193.60546875 C75.11324303 195.29135639 75.1134022 196.97724415 75.1139679 198.66313171 C75.11425397 203.22244078 75.10838789 207.78172337 75.10139394 212.34102631 C75.09512884 217.11227788 75.09455411 221.88353011 75.09336853 226.65478516 C75.09026451 235.68205463 75.08206367 244.70931195 75.07201904 253.73657608 C75.06082902 264.01709639 75.05534018 274.29761728 75.05032361 284.57814217 C75.03988027 305.7187684 75.02209663 326.85938301 75 348 C66.42 348 57.84 348 49 348 C48.99191315 345.82899719 48.98382629 343.65799438 48.97549438 341.42120361 C48.89847172 320.99638314 48.8105304 300.57163066 48.71247292 280.14690018 C48.66232021 269.64547436 48.6158776 259.14405645 48.578125 248.64257812 C48.54521604 239.49103878 48.5053909 230.33956034 48.45720994 221.18808818 C48.43193407 216.341065 48.41015598 211.49408228 48.39665604 206.6470108 C48.38384558 202.08669616 48.36180214 197.52652023 48.33261681 192.96628189 C48.32353308 191.29091769 48.31784895 189.61553114 48.31578636 187.94014359 C48.31246942 185.65551444 48.2970077 183.37127991 48.2784729 181.08673096 C48.27294214 179.8072823 48.26741138 178.52783363 48.26171303 177.2096138 C47.95988327 173.26905551 47.95988327 173.26905551 46 170 C38.87452621 165.95385476 38.87452621 165.95385476 25 166 C25 226.06 25 286.12 25 348 C16.75 348 8.5 348 0 348 C0 233.16 0 118.32 0 0 Z M25 25 C25 63.28 25 101.56 25 141 C38.00161734 142.02853879 38.00161734 142.02853879 46.75 136.5 C49.9574613 132.65104644 49.16263269 127.60432127 49.17700195 122.88208008 C49.18357315 121.948396 49.19014435 121.01471191 49.19691467 120.05273438 C49.21664778 116.95833252 49.2283112 113.86397924 49.23828125 110.76953125 C49.24235678 109.71210913 49.2464323 108.654687 49.25063133 107.56522179 C49.27149352 101.9669044 49.28579382 96.36861153 49.29516602 90.77026367 C49.30622227 84.99443599 49.34061299 79.21899443 49.38033772 73.44330311 C49.40651504 68.99681392 49.41485893 64.55041651 49.41844749 60.10385704 C49.42331163 57.97526127 49.43492065 55.84666955 49.45348549 53.71814919 C49.47789701 50.73342161 49.47690786 47.74968994 49.4699707 44.76489258 C49.48278076 43.89134628 49.49559082 43.01779999 49.50878906 42.11778259 C49.46108369 36.46474739 48.55580381 31.5604363 45 27 C39.36021682 23.80743041 39.36021682 23.80743041 25 25 Z " fill="#0F1720" transform="translate(2704,1106)"/>
<path d="M0 0 C0.92941406 -0.01611328 1.85882812 -0.03222656 2.81640625 -0.04882812 C12.79917223 -0.05578961 21.48369557 2.07240903 28.9375 8.99609375 C36.89807626 17.23860709 37.57183586 26.69951131 37.50595093 37.76098633 C37.5106309 38.97937352 37.51531087 40.19776072 37.52013266 41.45306873 C37.52997785 44.80901823 37.52650336 48.16445887 37.51717401 51.52037668 C37.51035615 55.14961847 37.52087824 58.7788174 37.52911377 62.40805054 C37.54242424 69.5074523 37.53958538 76.60675869 37.53087585 83.70616412 C37.52408911 89.4781591 37.52318686 95.25012742 37.5264473 101.02212524 C37.526907 101.84494077 37.52736669 102.66775629 37.52784032 103.51550561 C37.52879954 105.18725897 37.52977218 106.85901231 37.5307581 108.53076565 C37.53930412 124.19134578 37.52949023 139.85187314 37.513357 155.51244462 C37.49995453 168.9376848 37.50228285 182.36284716 37.51611328 195.78808594 C37.53218302 211.39423624 37.53848022 227.00034035 37.52927649 242.60649776 C37.52832089 244.27195675 37.52737777 245.93741575 37.5264473 247.60287476 C37.52598447 248.42222262 37.52552164 249.24157048 37.52504479 250.08574706 C37.52245908 255.84799838 37.52681684 261.61022028 37.53388596 267.37246704 C37.54231666 274.398754 37.5399879 281.42494047 37.52404372 288.45121598 C37.51618206 292.03325189 37.51303323 295.61512049 37.52299118 299.197155 C37.53363877 303.08620164 37.52088919 306.97497682 37.50595093 310.86401367 C37.51264309 311.98756665 37.51933526 313.11111963 37.52623022 314.26871967 C37.44403891 325.31892584 35.35803294 333.12875898 27.6015625 341.17578125 C19.64162958 348.04342054 10.50455632 348.5085573 0.4375 348.5625 C-0.50544922 348.583125 -1.44839844 348.60375 -2.41992188 348.625 C-12.7787951 348.681956 -21.97900716 346.2573503 -29.875 339.3125 C-37.5046796 330.49017241 -38.17353169 321.40889373 -38.13569641 310.18045044 C-38.13952196 308.9719392 -38.14334751 307.76342796 -38.14728898 306.51829517 C-38.15579655 303.18073433 -38.15539517 299.84339482 -38.15110838 296.50584054 C-38.14863549 292.89974587 -38.1576623 289.29367678 -38.16514587 285.68759155 C-38.17787929 278.62937935 -38.17968826 271.57120521 -38.17734561 264.51298346 C-38.17556077 258.77431575 -38.17731566 253.03565958 -38.18157005 247.29699326 C-38.18216524 246.47945748 -38.18276043 245.6619217 -38.18337366 244.81961211 C-38.18458544 243.15864969 -38.18579957 241.49768728 -38.18701603 239.83672486 C-38.19788635 224.26868447 -38.19573149 208.70066575 -38.18963119 193.13262413 C-38.18446252 178.9005698 -38.19571704 164.66858392 -38.21472941 150.43654312 C-38.23411636 135.8116146 -38.2423623 121.18671845 -38.23860615 106.561777 C-38.23669541 98.35558562 -38.23916934 90.14945251 -38.25332069 81.94327164 C-38.2652464 74.95720016 -38.26662607 67.9712228 -38.25453053 60.98514999 C-38.24865016 57.42337568 -38.24751891 53.86177344 -38.25953293 50.30001068 C-38.27242538 46.43276128 -38.26190721 42.56577127 -38.2492218 38.69851685 C-38.25659609 37.58138152 -38.26397037 36.4642462 -38.27156812 35.31325829 C-38.20731343 25.98640314 -36.77018283 17.52675638 -30.73828125 10.1328125 C-21.99151639 1.587755 -11.71109863 -0.040272 0 0 Z M-11.875 30.3125 C-12.62449979 34.14128012 -12.5492783 37.92267977 -12.50991821 41.8137207 C-12.51771817 42.99052808 -12.52551812 44.16733545 -12.53355443 45.37980366 C-12.55004913 48.64282472 -12.54411162 51.90491603 -12.52862334 55.16791391 C-12.51731533 58.68811402 -12.53476974 62.20818796 -12.54852295 65.72836304 C-12.57076594 72.62295779 -12.56594957 79.51728053 -12.55145974 86.41188598 C-12.54017162 92.01481723 -12.53863474 97.61767221 -12.54407883 103.22061157 C-12.54484499 104.01779455 -12.54561116 104.81497752 -12.54640054 105.63631755 C-12.54799915 107.25573725 -12.54962022 108.87515692 -12.5512635 110.49457657 C-12.5655241 125.68289709 -12.54912343 140.87106676 -12.52226166 156.05936253 C-12.49992257 169.09401255 -12.50380261 182.12843994 -12.52685547 195.16308594 C-12.55360802 210.29673396 -12.56415077 225.43024975 -12.54879415 240.56391811 C-12.54720139 242.1774082 -12.54562954 243.7908983 -12.54407883 245.40438843 C-12.54330745 246.19827369 -12.54253607 246.99215894 -12.54174132 247.81010133 C-12.53742267 253.4068499 -12.54471439 259.00351465 -12.55647659 264.60025024 C-12.57049412 271.42009341 -12.56671765 278.23964881 -12.54007287 285.05945897 C-12.52692427 288.53968219 -12.52179929 292.01942548 -12.53831863 295.49964523 C-12.55192683 299.27067281 -12.53491224 303.04033911 -12.50991821 306.8112793 C-12.52664863 308.46520675 -12.52664863 308.46520675 -12.54371703 310.15254688 C-12.47756061 316.24951211 -12.47756061 316.24951211 -9.54845238 321.49201965 C-6.11495865 323.83004815 -3.94146948 323.95007217 0.1875 323.875 C1.99927734 323.87693359 1.99927734 323.87693359 3.84765625 323.87890625 C7.7350874 323.20706177 8.69447336 322.34326703 11.125 319.3125 C11.71848793 316.92825292 11.71848793 316.92825292 11.62836456 314.30244446 C11.63879555 313.28676234 11.64922654 312.27108023 11.65997362 311.22461987 C11.65105073 310.1106247 11.64212785 308.99662954 11.63293457 307.84887695 C11.63917453 306.66405133 11.6454145 305.47922571 11.65184355 304.25849628 C11.66505434 300.96847769 11.6602785 297.67937024 11.64789867 294.38940668 C11.63886193 290.84195957 11.65281103 287.29459305 11.66381836 283.74716187 C11.68162299 276.79731779 11.67775502 269.84764633 11.6661678 262.89779544 C11.65714136 257.25050357 11.65590604 251.60326014 11.66026306 245.95596313 C11.66087599 245.15280523 11.66148893 244.34964732 11.66212043 243.52215129 C11.66339931 241.89065034 11.66469616 240.2591494 11.6660108 238.62764847 C11.67742228 223.32206837 11.664294 208.01658403 11.64280933 192.71101964 C11.62493782 179.57259793 11.62804177 166.43431759 11.64648438 153.29589844 C11.66788107 138.04581848 11.6763236 122.7958225 11.66403532 107.54572964 C11.6627611 105.92016539 11.66150362 104.29460114 11.66026306 102.66903687 C11.65964596 101.86918769 11.65902886 101.06933851 11.65839306 100.24525148 C11.65493654 94.60347278 11.66077497 88.96174727 11.67018127 83.31997681 C11.68138933 76.44632104 11.67838652 69.57284804 11.6570583 62.69921327 C11.64653161 59.19082595 11.64245318 55.68274356 11.65565491 52.17435837 C11.66973636 48.37477342 11.65294524 44.57568991 11.63293457 40.77612305 C11.64185746 39.66212789 11.65078034 38.54813272 11.65997362 37.40038013 C11.64954263 36.38469802 11.63911164 35.3690159 11.62836456 34.32255554 C11.62771515 33.44529155 11.62706574 32.56802755 11.62639666 31.6641798 C10.95195111 28.50085604 9.6295438 27.29720491 7.125 25.3125 C3.80086203 24.64161454 3.80086203 24.64161454 0.1875 24.75 C-1.01777344 24.72808594 -2.22304687 24.70617188 -3.46484375 24.68359375 C-7.98888359 25.51792412 -9.15395734 26.59385331 -11.875 30.3125 Z " fill="#0F181F" transform="translate(1587.875,1105.6875)"/>
<path d="M0 0 C7.1675393 5.78250755 10.25394619 12.2507202 11.42578125 21.26953125 C11.57450371 25.21026516 11.56494458 29.14871064 11.55949402 33.09187317 C11.56175958 34.29121402 11.56402513 35.49055487 11.56635934 36.72623938 C11.57158939 40.04738841 11.5723451 43.36848325 11.57116497 46.68963253 C11.57096067 50.27460372 11.57648249 53.85956687 11.58122253 57.4445343 C11.58952334 64.46524481 11.59227712 71.48594692 11.59283491 78.50666193 C11.59331034 84.21439517 11.59536644 89.92212565 11.59853554 95.62985802 C11.60734055 111.81805291 11.61195515 128.00624119 11.61120506 144.19443849 C11.61116511 145.06685826 11.61112515 145.93927803 11.61108398 146.83813477 C11.6110431 147.71162171 11.61100222 148.58510865 11.6109601 149.48506489 C11.61055367 163.64030772 11.62012281 177.79552395 11.63422235 191.95075909 C11.64859079 206.49086395 11.65549228 221.03095585 11.65462857 235.57106799 C11.65429677 243.73197375 11.65703675 251.89285163 11.66780663 260.05375099 C11.67691777 267.00218526 11.67908183 273.95057899 11.6722972 280.89901666 C11.6690351 284.44239295 11.66896408 287.98569149 11.67765045 291.52906036 C11.68698095 295.37482225 11.6807313 299.22047097 11.67301941 303.0662384 C11.67816297 304.17986891 11.68330654 305.29349942 11.68860596 306.44087631 C11.64068996 317.25957435 10.15363 325.63809138 2.96484375 333.9609375 C-5.01169568 341.72347221 -15.08193444 342.62347958 -25.69921875 342.70703125 C-26.61711182 342.71718262 -27.53500488 342.72733398 -28.48071289 342.73779297 C-38.90658675 342.60521716 -47.43598573 339.84015381 -55.57421875 333.26953125 C-61.44518286 327.08956903 -63.69179179 320.39888742 -63.70843983 312.01263142 C-63.71289767 310.96730789 -63.71735551 309.92198435 -63.72194844 308.84498435 C-63.72176408 307.70297622 -63.72157972 306.56096808 -63.72138977 305.38435364 C-63.7269048 303.5570557 -63.7269048 303.5570557 -63.73253125 301.69284266 C-63.74164128 298.31436138 -63.74626407 294.93592861 -63.74892056 291.55743968 C-63.75283082 287.91244117 -63.76240854 284.26745662 -63.77113342 280.62246704 C-63.79087593 271.822058 -63.80096056 263.02164784 -63.80986121 254.22122219 C-63.81424714 250.07485077 -63.8196131 245.92848063 -63.82485008 241.78211021 C-63.84185902 227.99564917 -63.85635319 214.20918892 -63.86359882 200.422719 C-63.86550864 196.84683544 -63.86742899 193.27095189 -63.86938477 189.69506836 C-63.86986851 188.80632515 -63.87035225 187.91758195 -63.87085065 187.00190713 C-63.87915105 172.60475319 -63.90448964 158.20768234 -63.93696544 143.81056467 C-63.97004958 129.02301415 -63.98804875 114.23550584 -63.99124306 99.44791812 C-63.99340674 91.14775512 -64.00213476 82.84771333 -64.02770424 74.54758644 C-64.04942963 67.47908776 -64.05745259 60.41073975 -64.04773746 53.34221146 C-64.04319824 49.73787076 -64.04505654 46.13384083 -64.0644989 42.52954292 C-64.08542592 38.61610943 -64.0751277 34.703102 -64.06196594 30.78962708 C-64.07293519 29.65877255 -64.08390443 28.52791802 -64.09520608 27.36279517 C-64.01529977 17.507197 -61.54300172 9.32518198 -54.703125 2.02734375 C-41.07994732 -9.22115158 -14.3700809 -9.66000886 0 0 Z M-37.57421875 23.26953125 C-38.34584934 27.07895412 -38.24793578 30.85802361 -38.20913696 34.7331543 C-38.21693692 35.91797992 -38.22473687 37.10280554 -38.23277318 38.32353497 C-38.24928758 41.61373467 -38.24331758 44.90251085 -38.22784209 48.19262457 C-38.21654611 51.74008978 -38.2339825 55.28742906 -38.2477417 58.83486938 C-38.26999758 65.78474454 -38.26516259 72.73435 -38.25067849 79.68423581 C-38.23939543 85.3315358 -38.23785129 90.9787601 -38.24329758 96.62606812 C-38.24406374 97.42922602 -38.24482991 98.23238393 -38.24561929 99.05987996 C-38.24721789 100.69138092 -38.24883895 102.32288186 -38.25048225 103.95438278 C-38.26474662 119.25998378 -38.24833627 134.56543515 -38.22148041 149.87101161 C-38.19914098 163.0094603 -38.20302091 176.14768812 -38.22607422 189.28613281 C-38.25282011 204.53622609 -38.26337326 219.78618816 -38.2480129 235.03630161 C-38.24642012 236.66186585 -38.24484827 238.28743011 -38.24329758 239.91299438 C-38.2425262 240.71284356 -38.24175482 241.51269274 -38.24096007 242.33677977 C-38.23663942 247.97856998 -38.24393744 253.6202771 -38.25569534 259.26205444 C-38.26970549 266.13574841 -38.265952 273.00915682 -38.23929162 279.88281798 C-38.22613304 283.39126286 -38.22103496 286.89923132 -38.23753738 290.40767288 C-38.25513965 294.20735522 -38.23415088 298.00625412 -38.20913696 301.8059082 C-38.22586738 303.47690094 -38.22586738 303.47690094 -38.24293578 305.18165112 C-38.28104885 311.09707383 -38.28104885 311.09707383 -35.24767113 315.9506073 C-31.84578261 317.62889874 -29.29881897 317.83608162 -25.51171875 317.83203125 C-23.69994141 317.86490234 -23.69994141 317.86490234 -21.8515625 317.8984375 C-18.53655914 317.53766122 -18.53655914 317.53766122 -16.40113068 315.4490509 C-13.6448473 310.65207244 -14.02224268 306.21060395 -14.06628418 300.76831055 C-14.06004422 299.59150317 -14.05380425 298.4146958 -14.0473752 297.20222759 C-14.0341799 293.93932087 -14.03892986 290.67700922 -14.05132008 287.41411734 C-14.06036644 283.89393537 -14.04640293 280.37383416 -14.03540039 276.85366821 C-14.01760608 269.95910482 -14.02145915 263.06471552 -14.03305095 256.17014527 C-14.04208144 250.5672222 -14.04331095 244.96434794 -14.03895569 239.36141968 C-14.03834276 238.5642367 -14.03772982 237.76705373 -14.03709832 236.9457137 C-14.03581943 235.32629401 -14.03452258 233.70687434 -14.03320795 232.08745468 C-14.02179949 216.89915523 -14.03492002 201.71095233 -14.05640942 186.52266872 C-14.07428066 173.4880459 -14.07117663 160.45356556 -14.05273438 147.41894531 C-14.03133235 132.28531072 -14.02289815 117.15176075 -14.03518343 102.01811314 C-14.03645764 100.40462304 -14.03771512 98.79113294 -14.03895569 97.17764282 C-14.03988134 95.98681494 -14.03988134 95.98681494 -14.04082569 94.77192992 C-14.04428061 89.17519296 -14.03844722 83.57850965 -14.02903748 77.98178101 C-14.01782351 71.16197633 -14.02084471 64.34235583 -14.04216045 57.52257228 C-14.05267916 54.04240707 -14.05677911 50.56254902 -14.04356384 47.08238602 C-14.03267779 43.31153226 -14.04628971 39.54154979 -14.06628418 35.77075195 C-14.05736129 34.66813365 -14.04843841 33.56551535 -14.03924513 32.42948437 C-14.08599281 27.90265067 -14.11557615 25.06774333 -16.40113068 21.0900116 C-19.45971641 18.52771544 -21.56756039 18.63547235 -25.51171875 18.70703125 C-27.31962891 18.70509766 -27.31962891 18.70509766 -29.1640625 18.703125 C-33.39182712 19.40533104 -34.75245985 20.01778169 -37.57421875 23.26953125 Z " fill="#0F171F" transform="translate(2668.57421875,1111.73046875)"/>
<path d="M0 0 C8.58 0 17.16 0 26 0 C26.00546844 5.96256866 26.00546844 5.96256866 26.01104736 12.04559326 C26.04630287 48.47367424 26.10130453 84.90168238 26.17792095 121.32970063 C26.18793875 126.10131053 26.19778282 130.87292077 26.20751953 135.64453125 C26.2094609 136.59449751 26.21140228 137.54446376 26.21340248 138.52321687 C26.24444764 153.9173106 26.26141014 169.31138942 26.27319422 184.70550856 C26.28559277 200.4941038 26.31306476 216.28262056 26.35461307 232.07116628 C26.37978569 241.81837133 26.39311454 251.56544631 26.39142957 261.31268433 C26.39139988 267.99118042 26.4059739 274.66954373 26.43216428 281.3479881 C26.44685337 285.20467409 26.45497658 289.06108777 26.44580269 292.91779709 C26.43603591 297.09428318 26.45695605 301.2700443 26.48101807 305.44647217 C26.47325765 306.67214236 26.46549723 307.89781255 26.45750165 309.16062427 C26.46894924 310.27630825 26.48039683 311.39199224 26.49219131 312.54148483 C26.4937102 313.50597447 26.49522908 314.47046411 26.49679399 315.46418071 C27.15468592 318.7795128 28.33605787 319.97230437 31 322 C33.89449949 322.2906124 36.37949935 322.38186045 39.25 322.25 C39.99507812 322.23195313 40.74015625 322.21390625 41.5078125 322.1953125 C43.33909701 322.14835649 45.16971649 322.07661652 47 322 C47.95211571 318.78546135 48.12944211 315.88814689 48.1386652 312.54148483 C48.14413964 311.42580085 48.14961409 310.31011686 48.15525442 309.16062427 C48.15623253 307.93495407 48.15721064 306.70928388 48.15821838 305.44647217 C48.16315636 304.14448482 48.16809434 302.84249747 48.17318195 301.50105596 C48.18676597 297.88439604 48.19418218 294.26774553 48.20060861 290.65106678 C48.20861139 286.7519756 48.22230959 282.852904 48.23532104 278.9538269 C48.25708552 272.19748294 48.27523012 265.44113699 48.29092598 258.68477631 C48.31362486 248.91617637 48.34176767 239.1475981 48.37124526 229.37901655 C48.41892094 213.53068206 48.46218519 197.68233871 48.50268555 181.83398438 C48.54204059 166.43749299 48.58346684 151.04100947 48.62768555 135.64453125 C48.63040982 134.69571755 48.63313409 133.74690385 48.63594092 132.76933822 C48.6496204 128.009486 48.66334067 123.2496339 48.67708123 118.48978186 C48.79104563 78.99320411 48.89758359 39.49660925 49 0 C57.58 0 66.16 0 75 0 C75.06783412 40.97806331 75.12153696 81.95611184 75.15319599 122.93422001 C75.15694806 127.77320406 75.16083103 132.61218799 75.16479492 137.45117188 C75.16558185 138.41451734 75.16636878 139.37786281 75.16717956 140.37040056 C75.18022977 155.96415762 75.2038815 171.55788146 75.23145839 187.15161882 C75.25952328 203.15490065 75.27617856 219.1581651 75.28226548 235.16147053 C75.28637967 245.03457553 75.29936921 254.90758664 75.3237494 264.78066273 C75.33961996 271.55306183 75.34439736 278.32541245 75.34050413 285.09782879 C75.33858464 289.00384598 75.34150563 292.90969922 75.35761642 296.81568718 C75.37227668 300.3962488 75.37291298 303.9765371 75.36269668 307.55711164 C75.36084038 309.45651475 75.37372412 311.35591493 75.38724393 313.25527084 C75.32795244 324.62140212 73.47286373 332.5674443 65.4765625 340.86328125 C57.51662958 347.73092054 48.37955632 348.1960573 38.3125 348.25 C37.36955078 348.270625 36.42660156 348.29125 35.45507812 348.3125 C25.0962049 348.369456 15.89599284 345.9448503 8 339 C0.08840269 329.8516862 -0.29557446 320.43584084 -0.24050903 308.81359863 C-0.24138216 307.47850764 -0.24313512 306.14341699 -0.24568737 304.80832815 C-0.25014382 301.15505186 -0.24218074 297.5018936 -0.23213124 293.84863234 C-0.22347442 289.90326929 -0.22641848 285.9579126 -0.22793579 282.01254272 C-0.22898323 275.18203664 -0.22272137 268.35156884 -0.21146011 261.52107239 C-0.19518897 251.64539126 -0.18999545 241.7697286 -0.18748413 231.89403552 C-0.18310956 215.87042725 -0.16980692 199.84683938 -0.15087891 183.82324219 C-0.13251394 168.26009218 -0.11836045 152.69694772 -0.10986328 137.13378906 C-0.10933783 136.17407827 -0.10881239 135.21436749 -0.10827102 134.22557455 C-0.1056609 129.41086872 -0.10313349 124.59616285 -0.10064721 119.78145695 C-0.07992213 79.85428966 -0.04415169 39.92714775 0 0 Z " fill="#0F1720" transform="translate(1844,1106)"/>
<path d="M0 0 C0.92941406 -0.01611328 1.85882812 -0.03222656 2.81640625 -0.04882812 C13.10020826 -0.05599954 22.28366585 2.43196173 30.125 9.3125 C37.07865154 17.65688184 37.40975916 26.3154647 37.25 36.75 C37.20875 40.565625 37.1675 44.38125 37.125 48.3125 C28.875 48.3125 20.625 48.3125 12.125 48.3125 C12.00125 46.146875 11.8775 43.98125 11.75 41.75 C11.56467144 33.50325139 11.56467144 33.50325139 8.125 26.3125 C5.65142763 26.15900864 3.22495481 26.08090115 0.75 26.0625 C0.06421875 26.041875 -0.6215625 26.02125 -1.328125 26 C-5.31811352 25.94844498 -5.31811352 25.94844498 -8.7890625 27.703125 C-10.78290572 30.65802934 -11.00135632 32.49439905 -11.00642776 36.02960777 C-11.01026891 37.0308576 -11.01411005 38.03210744 -11.0180676 39.06369817 C-11.01720112 40.17184617 -11.01633463 41.27999417 -11.01544189 42.42172241 C-11.01841302 43.59258853 -11.02138414 44.76345464 -11.0244453 45.96980155 C-11.03164072 49.2298205 -11.03430578 52.48980741 -11.03504276 55.74983311 C-11.03689043 59.26184241 -11.04443628 62.77384022 -11.05117798 66.2858429 C-11.06477331 73.9696307 -11.07078781 81.6534133 -11.07518864 89.33721113 C-11.07794888 94.13238734 -11.08218581 98.92756152 -11.08669281 103.72273636 C-11.09888675 116.99181428 -11.10918601 130.26089058 -11.1125679 143.52997398 C-11.11278747 144.37960192 -11.11300703 145.22922986 -11.11323325 146.1046041 C-11.11345153 146.95629614 -11.11366981 147.80798817 -11.1138947 148.68548906 C-11.11433817 150.41141979 -11.11478473 152.13735052 -11.11523438 153.86328125 C-11.1154558 154.71940744 -11.11567723 155.57553364 -11.11590537 156.45760305 C-11.11985482 170.33519692 -11.13731273 184.21273833 -11.1605939 198.09031193 C-11.1842879 212.32855291 -11.19676885 226.56676754 -11.19793582 240.80502856 C-11.19885365 248.80320823 -11.20463308 256.80131955 -11.22275543 264.79948044 C-11.23813009 271.60909576 -11.24329251 278.4186216 -11.23501733 285.22825097 C-11.2311015 288.70418522 -11.23208553 292.17993912 -11.24607468 295.65585136 C-11.25868825 299.42049509 -11.25297492 303.18467061 -11.24249268 306.9493103 C-11.25054908 308.05299686 -11.25860548 309.15668341 -11.26690602 310.29381502 C-11.26031618 311.30028034 -11.25372633 312.30674567 -11.2469368 313.34370995 C-11.24753389 314.2129448 -11.24813097 315.08217965 -11.24874616 315.97775495 C-10.78628226 318.86670852 -9.91889283 320.23613559 -7.875 322.3125 C-5.20948124 322.69371721 -3.02657379 322.82828456 -0.375 322.75 C0.64013672 322.76063477 0.64013672 322.76063477 1.67578125 322.77148438 C4.49818837 322.73529967 6.61904308 322.63494385 9.03125 321.09765625 C11.44278484 317.16168689 11.25654169 312.58569274 11.28321838 308.09257507 C11.29790161 306.21432289 11.29790161 306.21432289 11.31288147 304.29812622 C11.31878485 302.91839638 11.32459535 301.53866613 11.33032227 300.15893555 C11.33990669 298.70008571 11.34991711 297.24123863 11.36032104 295.78239441 C11.38731499 291.82828873 11.40835432 287.87417119 11.42832303 283.92002463 C11.45021664 279.78535036 11.4775888 275.65071243 11.50437927 271.5160675 C11.55426056 263.68932515 11.5992163 255.86256258 11.64240164 248.03578073 C11.69181304 239.12408121 11.74671668 230.21241817 11.80208123 221.30075395 C11.91583121 202.97136965 12.02249061 184.64195037 12.125 166.3125 C7.835 166.3125 3.545 166.3125 -0.875 166.3125 C-0.875 158.0625 -0.875 149.8125 -0.875 141.3125 C11.665 141.3125 24.205 141.3125 37.125 141.3125 C37.21538034 164.98276295 37.28902864 188.65288565 37.33224869 212.32327747 C37.3528521 223.31445822 37.38093026 234.30552395 37.42675781 245.29663086 C37.46669354 254.8792533 37.49244895 264.46179241 37.50135398 274.04449576 C37.50655731 279.11597397 37.51874073 284.18721385 37.54792023 289.25861549 C37.57519578 294.03811567 37.58342055 298.81728073 37.57743073 303.59685135 C37.57852555 305.34509926 37.58640681 307.09335909 37.6018219 308.84153938 C37.69801924 320.32004743 37.48991911 330.7756135 29.4375 339.75 C18.97206318 349.27823353 6.05121469 348.96507386 -7.31396484 348.49169922 C-16.07715816 347.8785263 -24.77696652 344.82959265 -30.875 338.3125 C-37.39027084 329.30806159 -38.17247291 320.06233485 -38.14242554 309.27656555 C-38.14695665 308.07833811 -38.15148776 306.88011068 -38.15615618 305.64557332 C-38.16659367 302.33661101 -38.16813166 299.02786681 -38.16576743 295.71890366 C-38.16535799 292.14342274 -38.17641057 288.56797381 -38.18588257 284.99250793 C-38.2024666 277.99345196 -38.20799095 270.99442968 -38.20910732 263.9953557 C-38.21005912 258.30295655 -38.21417597 252.61056848 -38.22050858 246.91817284 C-38.23811461 230.76205267 -38.24734855 214.60595903 -38.24584763 198.4498292 C-38.24576772 197.57959113 -38.2456878 196.70935306 -38.24560547 195.81274414 C-38.24552371 194.94143745 -38.24544195 194.07013075 -38.24535771 193.17242082 C-38.24454519 179.05877209 -38.26367582 164.94523017 -38.2918822 150.83161233 C-38.32064791 136.32305947 -38.33442044 121.81455865 -38.33269465 107.30597657 C-38.33203198 99.16729513 -38.3374702 91.02872564 -38.35905075 82.89006996 C-38.37731124 75.95932821 -38.38157018 69.02874917 -38.3680319 62.09799371 C-38.3615264 58.56617395 -38.36129648 55.03466589 -38.3787384 51.50287628 C-38.39750617 47.66289293 -38.38485137 43.82335852 -38.36947632 39.98335266 C-38.37976344 38.88273776 -38.39005057 37.78212286 -38.40064943 36.64815599 C-38.32444291 27.98925664 -37.03609622 18.05462663 -31.75 10.875 C-22.12030386 2.29200996 -12.58970015 -0.04329333 0 0 Z " fill="#0F171F" transform="translate(2839.875,1105.6875)"/>
<path d="M0 0 C1.11375 0.63615234 1.11375 0.63615234 2.25 1.28515625 C7.96281311 5.05519284 11.51502611 10.23307583 13.55078125 16.76806641 C14.10237866 19.50866614 14.11192079 22.06352441 14.09765625 24.859375 C14.09515869 25.86452148 14.09266113 26.86966797 14.09008789 27.90527344 C14.08098389 29.1740332 14.07187988 30.44279297 14.0625 31.75 C14.041875 35.7925 14.02125 39.835 14 44 C5.75 44 -2.5 44 -11 44 C-11.3125 35.8125 -11.3125 35.8125 -11.38793945 33.26098633 C-11.66756753 27.04889101 -11.66756753 27.04889101 -15 22 C-17.92046219 21.39931006 -20.72225227 21.52938589 -23.6875 21.6875 C-24.88342773 21.72133789 -24.88342773 21.72133789 -26.10351562 21.75585938 C-28.06981334 21.81473056 -30.03514491 21.90441245 -32 22 C-34.21382826 28.24293725 -34.28111684 34.01276991 -34.25396729 40.59660339 C-34.25708727 41.75949097 -34.26020725 42.92237856 -34.26342177 44.12050515 C-34.27000376 47.3350661 -34.26765521 50.54947517 -34.26144934 53.76403224 C-34.25691644 57.23573723 -34.26391266 60.70742199 -34.26940918 64.17912292 C-34.27829504 70.97410743 -34.27638501 77.76904772 -34.2705839 84.56403395 C-34.26606536 90.08538517 -34.26545533 95.60672401 -34.26763153 101.12807655 C-34.267938 101.91417582 -34.26824446 102.7002751 -34.26856022 103.51019556 C-34.26919967 105.1071499 -34.26984809 106.70410423 -34.2705054 108.30105857 C-34.27620604 123.26898403 -34.26965439 138.23688498 -34.25890467 153.20480642 C-34.24996416 166.05150756 -34.25152582 178.89817256 -34.26074219 191.74487305 C-34.2714405 206.66424778 -34.27566225 221.58360106 -34.26951766 236.5029791 C-34.26888056 238.09310964 -34.26825182 239.68324019 -34.26763153 241.27337074 C-34.2671687 242.44694007 -34.2671687 242.44694007 -34.26669653 243.64421787 C-34.26496866 249.16128199 -34.26788655 254.67833251 -34.27259064 260.19539452 C-34.27819436 266.91521624 -34.27669353 273.63499122 -34.26602915 280.35480758 C-34.26076638 283.78415418 -34.25872603 287.2134228 -34.26532745 290.64276886 C-34.27076384 294.35670709 -34.26397186 298.07042357 -34.25396729 301.78434753 C-34.25842873 302.87295065 -34.26289017 303.96155376 -34.26748681 305.08314484 C-34.26227132 306.07607649 -34.25705582 307.06900813 -34.25168228 308.09202862 C-34.25119522 309.37814542 -34.25119522 309.37814542 -34.25069833 310.69024438 C-33.97442272 313.23565081 -33.363365 314.84206654 -32 317 C-28.96576019 318.5171199 -25.82495206 318.18439257 -22.5 318.1875 C-21.81035156 318.19974609 -21.12070313 318.21199219 -20.41015625 318.22460938 C-18.60522506 318.22988695 -16.80082158 318.12184458 -15 318 C-11.47419217 314.47419217 -11.86994008 310.63547606 -11.84178162 305.82440186 C-11.8319928 304.55678009 -11.82220398 303.28915833 -11.81211853 301.98312378 C-11.80621473 300.58087196 -11.80040426 299.17861974 -11.79467773 297.77636719 C-11.78509628 296.29796069 -11.77508604 294.81955692 -11.76467896 293.34115601 C-11.7376528 289.32914157 -11.71663085 285.3171154 -11.69667697 281.30506039 C-11.6748033 277.11165671 -11.64742136 272.91828911 -11.62062073 268.72491455 C-11.57071253 260.78480764 -11.52576675 252.84468068 -11.48259836 244.90453458 C-11.43320999 235.86468675 -11.37829779 226.82487512 -11.32291877 217.78506231 C-11.20912747 199.19007496 -11.10247815 180.59505291 -11 162 C-15.29 162 -19.58 162 -24 162 C-24 153.75 -24 145.5 -24 137 C-11.46 137 1.08 137 14 137 C14.09035892 160.81791742 14.1640162 184.63569567 14.20724869 208.45374107 C14.22785748 219.51333129 14.25594598 230.57280731 14.30175781 241.63232422 C14.34167701 251.27390071 14.36744504 260.91539447 14.37635398 270.5570513 C14.3815601 275.66035495 14.39376141 280.76342196 14.42292023 285.86664963 C14.45016958 290.67487333 14.45842578 295.482764 14.45243073 300.29105759 C14.45352671 302.05101331 14.46142369 303.81098074 14.4768219 305.57086945 C14.56648977 316.35249602 14.48301554 327.13894233 6.75 335.62109375 C-5.09170435 344.9517224 -18.66499132 344.93244747 -33 344 C-42.66155455 342.57436683 -49.80235945 338.60402821 -56 331 C-61.53370285 321.6103659 -61.14901684 310.79720245 -61.13371277 300.22344971 C-61.13597833 299.06520337 -61.13824388 297.90695703 -61.14057809 296.71361232 C-61.14578923 293.52098659 -61.14656711 290.32839654 -61.14538372 287.13576794 C-61.14517872 283.68369842 -61.15070785 280.23163715 -61.15544128 276.77957153 C-61.16372704 270.02463333 -61.16649518 263.26970386 -61.16705366 256.514761 C-61.16752981 251.0207113 -61.16958945 245.52666446 -61.17275429 240.03261566 C-61.18155517 224.43578309 -61.18617455 208.83895739 -61.18542381 193.24212232 C-61.18538386 192.40231961 -61.1853439 191.5625169 -61.18530273 190.69726562 C-61.18526185 189.85643058 -61.18522097 189.01559553 -61.18517885 188.14928064 C-61.18477254 174.5271855 -61.19433996 160.90511803 -61.2084411 147.2830309 C-61.22282545 133.27617752 -61.22971015 119.26933762 -61.22884732 105.26247668 C-61.22851607 97.40665439 -61.23123182 89.55086109 -61.24202538 81.69504547 C-61.2511575 75.00591026 -61.25328343 68.31681719 -61.24651595 61.62767842 C-61.2432644 58.2194774 -61.2431443 54.81135712 -61.2518692 51.40316391 C-61.25962165 47.6968663 -61.25492269 43.99077817 -61.24723816 40.28448486 C-61.25238172 39.22346156 -61.25752529 38.16243826 -61.26282471 37.06926274 C-61.20227223 23.77559578 -60.15325398 12.90325398 -50.5 3.25 C-38.01313137 -6.81782581 -13.7989952 -7.90978117 0 0 Z " fill="#0F1720" transform="translate(2322,1110)"/>
<path d="M0 0 C7.16711139 5.78581356 10.26004954 12.42553088 11.6484375 21.421875 C11.86580197 25.11640213 11.83983331 28.78530604 11.7734375 32.484375 C11.7321875 35.76375 11.6909375 39.043125 11.6484375 42.421875 C3.0684375 42.421875 -5.5115625 42.421875 -14.3515625 42.421875 C-14.6640625 33.671875 -14.6640625 33.671875 -14.73950195 30.93457031 C-14.89169782 27.62107013 -15.12930821 24.94881971 -16.42578125 21.875 C-19.36789074 19.6549904 -22.31825977 19.84111379 -25.8515625 19.921875 C-26.52832031 19.90640625 -27.20507812 19.8909375 -27.90234375 19.875 C-30.99948386 19.89943503 -32.88021586 20.01234432 -35.2578125 22.078125 C-38.09914267 28.16668965 -37.49488034 35.07921976 -37.48527527 41.6502533 C-37.48754083 42.78566844 -37.48980638 43.92108359 -37.49214059 45.09090525 C-37.49847378 48.89777203 -37.49765166 52.70460314 -37.49682617 56.51147461 C-37.49927465 59.2398848 -37.50319231 61.96829247 -37.50700378 64.69670105 C-37.5153026 71.33974616 -37.51805826 77.98278239 -37.51861616 84.62583225 C-37.51909161 90.02561169 -37.52114778 95.42538819 -37.52431679 100.8251667 C-37.5331206 116.13809255 -37.53773649 131.45101139 -37.53698631 146.76393979 C-37.53692638 148.00166972 -37.53692638 148.00166972 -37.53686523 149.2644043 C-37.53682435 150.09056602 -37.53678347 150.91672775 -37.53674135 151.76792467 C-37.53633477 165.16146916 -37.54590808 178.55498555 -37.5600036 191.9485219 C-37.57436614 205.70438861 -37.58127388 219.46024161 -37.58040982 233.21611601 C-37.58007785 240.93765262 -37.5828251 248.65915976 -37.59358788 256.38068962 C-37.60269117 262.95368834 -37.60486947 269.52664421 -37.59807845 276.0996465 C-37.5948126 279.45242027 -37.595845 282.80504473 -37.6034317 286.15782166 C-37.6111277 289.7941259 -37.6065225 293.43021361 -37.59880066 297.06651306 C-37.60394422 298.12371408 -37.60908779 299.1809151 -37.61438721 300.27015251 C-37.5889228 305.68896573 -37.32685314 310.34314826 -35.3515625 315.421875 C-32.33287815 316.93121717 -29.22347852 316.68767581 -25.9140625 316.734375 C-25.23279297 316.76337891 -24.55152344 316.79238281 -23.84960938 316.82226562 C-19.85762184 316.91192571 -19.85762184 316.91192571 -16.65748882 314.78598404 C-14.97888483 311.74721929 -14.9671417 309.63827379 -14.95283508 306.17034912 C-14.94029694 304.88589905 -14.92775879 303.60144897 -14.9148407 302.27807617 C-14.91601473 300.85693334 -14.91747388 299.43579072 -14.91918945 298.01464844 C-14.91017232 296.51653229 -14.89984522 295.01842354 -14.88830566 293.52032471 C-14.86070356 289.45455611 -14.85144682 285.38892737 -14.84545159 281.3230772 C-14.83607625 277.07358433 -14.80987357 272.82419627 -14.78544617 268.57476807 C-14.74175431 260.52841427 -14.71322387 252.48208077 -14.69012278 244.43564439 C-14.6630855 235.27484347 -14.6191731 226.11414785 -14.57383406 216.95342207 C-14.48094931 198.10962673 -14.40988471 179.26580683 -14.3515625 160.421875 C-18.3115625 160.421875 -22.2715625 160.421875 -26.3515625 160.421875 C-26.3515625 152.171875 -26.3515625 143.921875 -26.3515625 135.421875 C-13.8115625 135.421875 -1.2715625 135.421875 11.6484375 135.421875 C11.71622554 158.7009849 11.77146068 181.98001457 11.80387402 205.25919819 C11.81932584 216.06874952 11.84038313 226.87823505 11.87475586 237.68774414 C11.90470981 247.1121531 11.92402475 256.53651439 11.93070298 265.96096963 C11.93460508 270.94856589 11.9437404 275.93602581 11.96562767 280.92357826 C11.9860876 285.62424619 11.99225217 290.32472245 11.98776054 295.02543068 C11.98858151 296.74464461 11.99449026 298.46386538 12.00605392 300.18304062 C12.08704505 312.85235478 11.94545076 324.79595797 2.6484375 334.421875 C-5.12940333 341.72313245 -15.07912536 342.9263595 -25.3515625 342.796875 C-26.27195312 342.80847656 -27.19234375 342.82007813 -28.140625 342.83203125 C-38.67688519 342.78751184 -48.17434633 340.02479216 -56.07421875 332.859375 C-63.35359585 325.13286171 -63.79250088 316.18430857 -63.73251343 306.01098633 C-63.7371934 304.78458089 -63.74187337 303.55817545 -63.74669516 302.29460621 C-63.75655159 298.9116655 -63.7530577 295.52922843 -63.74373651 292.14631891 C-63.73692597 288.48981193 -63.74743714 284.83334774 -63.75567627 281.17684937 C-63.76899449 274.0221667 -63.76614441 266.86757862 -63.75743835 259.71289229 C-63.75065467 253.89652848 -63.74974804 248.08019111 -63.7530098 242.26382446 C-63.7534695 241.43503401 -63.75392919 240.60624355 -63.75440282 239.75233823 C-63.75536203 238.06850361 -63.75633467 236.384669 -63.7573206 234.70083439 C-63.76586889 218.92297347 -63.75604916 203.14516489 -63.7399195 187.36731255 C-63.72651682 173.8382733 -63.72884507 160.30931129 -63.74267578 146.78027344 C-63.7587415 131.05767769 -63.76504497 115.33512779 -63.75583899 99.61252499 C-63.75488337 97.93499184 -63.75394026 96.25745869 -63.7530098 94.57992554 C-63.75254697 93.75461376 -63.75208414 92.92930197 -63.75160729 92.07898074 C-63.74902038 86.27168761 -63.75338195 80.46442363 -63.76044846 74.65713501 C-63.76887468 67.57699672 -63.76655976 60.49695817 -63.75060622 53.41683125 C-63.74273857 49.80657288 -63.73960606 46.19648063 -63.74955368 42.5862236 C-63.7601855 38.66831031 -63.74746418 34.75066722 -63.73251343 30.83276367 C-63.73920559 29.69783383 -63.74589776 28.562904 -63.75279272 27.39358234 C-63.67788882 17.26958685 -61.78403518 9.88698475 -54.73828125 2.4375 C-41.27739437 -8.93045029 -14.41476073 -9.67369325 0 0 Z " fill="#0F171F" transform="translate(2481.3515625,1111.578125)"/>
<path d="M0 0 C1.11375 0.63615234 1.11375 0.63615234 2.25 1.28515625 C7.96195879 5.05462906 11.463747 10.2057275 13.54978943 16.71575928 C14.14593862 19.74045114 14.11923559 22.61278073 14.11352539 25.69628906 C14.11367142 26.36011597 14.11381744 27.02394287 14.1139679 27.70788574 C14.11327332 29.8938325 14.10550231 32.07969319 14.09765625 34.265625 C14.09579045 35.78448439 14.09436731 37.30334438 14.09336853 38.82220459 C14.0895561 42.81377839 14.0797367 46.80531562 14.06866455 50.796875 C14.05842303 54.8723908 14.05386504 58.94791253 14.04882812 63.0234375 C14.03811327 71.01564362 14.0205268 79.00781305 14 87 C5.75 87 -2.5 87 -11 87 C-11.029729 84.35834839 -11.029729 84.35834839 -11.06005859 81.66333008 C-11.12790975 75.83581198 -11.2046913 70.00844808 -11.28752708 64.18112659 C-11.33741068 60.64902973 -11.38374107 57.11696161 -11.421875 53.5847168 C-11.46590254 49.52113239 -11.52552107 45.45790528 -11.5859375 41.39453125 C-11.59748871 40.1297847 -11.60903992 38.86503815 -11.62094116 37.56196594 C-11.64081085 36.38111923 -11.66068054 35.20027252 -11.68115234 33.98364258 C-11.69447601 32.94661697 -11.70779968 31.90959137 -11.7215271 30.84114075 C-12.03740069 27.6184166 -12.63032194 24.36967806 -15 22 C-17.47357237 21.84650864 -19.90004519 21.76840115 -22.375 21.75 C-23.06078125 21.729375 -23.7465625 21.70875 -24.453125 21.6875 C-28.40251245 21.65252102 -28.40251245 21.65252102 -31.9140625 23.265625 C-33.85572793 26.36670216 -34.12514581 29.5037994 -34.14044189 33.10295105 C-34.14615204 33.91161621 -34.15186218 34.72028137 -34.15774536 35.55345154 C-34.15886322 36.43195267 -34.15998108 37.3104538 -34.16113281 38.21557617 C-34.16609772 39.14779999 -34.17106262 40.0800238 -34.17617798 41.04049683 C-34.19078234 44.12466166 -34.19759951 47.20877502 -34.203125 50.29296875 C-34.20887882 52.44045513 -34.21463652 54.5879415 -34.22039795 56.73542786 C-34.23090368 61.24036905 -34.23674884 65.74529242 -34.24023438 70.25024414 C-34.24571162 76.00905919 -34.26972514 81.76763692 -34.29820633 87.52637768 C-34.31687756 91.96432674 -34.32204075 96.40221922 -34.32357025 100.84020424 C-34.32658826 102.962378 -34.33458787 105.08455096 -34.34775543 107.20668602 C-34.3649061 110.18378845 -34.36291339 113.16031871 -34.35644531 116.13745117 C-34.3656601 117.00583115 -34.37487488 117.87421112 -34.3843689 118.76890564 C-34.34685698 124.310765 -33.91914568 130.1466957 -31 135 C-27.60369385 136.29988462 -24.04558054 136.20568225 -20.4375 136.375 C-9.96505363 137.09273776 0.27000834 138.93820481 7.75390625 146.85546875 C12.67694446 152.98850671 14.24484085 159.01749253 14.26742554 166.88667297 C14.27195665 167.54305022 14.27648776 168.19942747 14.28115618 168.87569493 C14.29372661 171.05563108 14.29218465 173.23531503 14.29052734 175.4152832 C14.29651721 176.9862805 14.30332381 178.55727485 14.31088257 180.12826538 C14.32850319 184.3825347 14.33323628 188.63672349 14.33451414 192.89102578 C14.33593853 195.55271183 14.34021359 198.21437758 14.34550858 200.87605858 C14.36399584 210.1725125 14.37218082 219.46890917 14.37060547 228.76538086 C14.36940443 237.41379909 14.39050271 246.06196761 14.4220928 254.71032268 C14.44829406 262.15006086 14.45897115 269.58971768 14.45769465 277.02950162 C14.45718615 281.46646139 14.46280727 285.90319911 14.48405075 290.34011269 C14.50349822 294.51566215 14.50351351 298.69077921 14.48901749 302.86634445 C14.48693633 304.39247333 14.49158871 305.91862975 14.5037384 307.44471169 C14.58107478 317.83775535 13.9924736 326.85733555 6.75 334.875 C-1.8614818 342.67858159 -12.11374065 344.35330166 -23.375 344.3125 C-24.25671875 344.32861328 -25.1384375 344.34472656 -26.046875 344.36132812 C-36.0890689 344.36869044 -45.43475674 341.84198865 -53 335 C-61.66474621 324.59117211 -61.3018113 311.60454528 -61.1953125 298.703125 C-61.19106766 296.73095001 -61.19106766 296.73095001 -61.18673706 294.71893311 C-61.1791939 291.26664257 -61.15962872 287.81452722 -61.1373291 284.36230469 C-61.11666674 280.82229014 -61.10758174 277.28224574 -61.09765625 273.7421875 C-61.07743924 266.82797158 -61.03827066 259.91423325 -61 253 C-52.42 253 -43.84 253 -35 253 C-34.96261719 257.27324219 -34.92523437 261.54648438 -34.88671875 265.94921875 C-34.84859646 269.36246046 -34.80752378 272.77563836 -34.7644577 276.18881989 C-34.71984623 279.78853728 -34.68040108 283.38813959 -34.65356445 286.98803711 C-34.62750177 290.45715697 -34.58707944 293.92584275 -34.53681374 297.39469337 C-34.51207779 299.35821845 -34.50210773 301.32191158 -34.49235535 303.28556824 C-34.46266411 305.08686943 -34.46266411 305.08686943 -34.43237305 306.92456055 C-34.42126999 307.97935104 -34.41016693 309.03414154 -34.39872742 310.12089539 C-33.93725633 313.45305537 -33.07116537 315.35836221 -31 318 C-28.26424805 318.44055465 -26.21121752 318.56918771 -23.5 318.4375 C-22.82324219 318.43169922 -22.14648438 318.42589844 -21.44921875 318.41992188 C-17.7944005 318.32981294 -16.10633868 318.07089246 -13 316 C-11.78148907 312.82578358 -11.86946124 309.65906999 -11.85955811 306.28910828 C-11.85384796 305.12415833 -11.84813782 303.95920837 -11.84225464 302.75895691 C-11.84113678 301.48458267 -11.84001892 300.21020844 -11.83886719 298.8972168 C-11.8342367 297.53854234 -11.82921173 296.17986917 -11.82382202 294.82119751 C-11.81071842 291.13306594 -11.80425709 287.44495257 -11.79981136 283.75680137 C-11.79687742 281.45111901 -11.79277201 279.1454416 -11.78830719 276.83976173 C-11.7746378 269.62148076 -11.76496834 262.40321112 -11.7611053 255.18491811 C-11.7566254 246.86043213 -11.73907839 238.53611042 -11.7101047 230.21167439 C-11.68846991 223.77161915 -11.67840006 217.33161007 -11.67706418 210.89151889 C-11.67601746 207.04764251 -11.67013812 203.20392066 -11.65224457 199.36008263 C-11.6357326 195.74276676 -11.63362337 192.12572108 -11.64238358 188.50838089 C-11.64351765 186.55477683 -11.62982455 184.60118161 -11.6156311 182.64762878 C-11.64957384 175.49596237 -11.8028687 169.79708681 -16.58203125 164.12109375 C-21.16663596 161.99543696 -26.30984917 162.19607589 -31.29492188 161.91601562 C-40.58833448 161.22268643 -48.6881635 158.06794191 -55 151 C-63.58423606 139.035721 -61.29466295 121.41378929 -61.265625 107.5 C-61.2669747 105.21419229 -61.26891777 102.92838486 -61.27142334 100.64257812 C-61.27436023 95.86846159 -61.27012328 91.09442025 -61.26074219 86.3203125 C-61.24934862 80.22800712 -61.25591579 74.13587803 -61.26788712 68.0435791 C-61.27514454 63.32843723 -61.2728 58.61333653 -61.26763153 53.89819336 C-61.26630576 51.65291319 -61.26790477 49.40762918 -61.27259064 47.16235352 C-61.32425996 15.45240427 -61.32425996 15.45240427 -52.3515625 5.09765625 C-40.30964811 -6.91885326 -14.44795854 -8.28177624 0 0 Z " fill="#0F171F" transform="translate(1807,1110)"/>
<path d="M0 0 C1.11375 0.63615234 1.11375 0.63615234 2.25 1.28515625 C8.32079401 5.29143391 11.90925953 10.5347869 13.63691711 17.6073761 C14.97836834 25.46295361 15.27713767 33.08364476 15.23046875 41.04296875 C15.23001053 42.33318436 15.22955231 43.62339996 15.2290802 44.95271301 C15.22753215 47.6544857 15.21936358 50.35612271 15.20581055 53.05786133 C15.1886342 56.525837 15.18500242 59.99366715 15.18575573 63.46168041 C15.18541986 66.78046286 15.17660067 70.09919706 15.16796875 73.41796875 C15.16685593 74.66571579 15.1657431 75.91346283 15.16459656 77.19902039 C15.15821671 78.34143692 15.15183685 79.48385345 15.14526367 80.66088867 C15.14145187 81.67060226 15.13764008 82.68031586 15.13371277 83.72062683 C15 86 15 86 14 87 C12.14630389 87.08737645 10.28932459 87.10698153 8.43359375 87.09765625 C7.30888672 87.09443359 6.18417969 87.09121094 5.02539062 87.08789062 C3.84138672 87.07951172 2.65738281 87.07113281 1.4375 87.0625 C0.24962891 87.05798828 -0.93824219 87.05347656 -2.16210938 87.04882812 C-5.10812226 87.03699675 -8.05403681 87.02051287 -11 87 C-11.00586624 86.25941849 -11.01173248 85.51883698 -11.01777649 84.7558136 C-11.07574725 77.76700466 -11.14784915 70.77846798 -11.23571491 63.78997517 C-11.28038946 60.19732735 -11.31965162 56.60479216 -11.34643555 53.01196289 C-11.37249823 49.54284303 -11.41292056 46.07415725 -11.46318626 42.60530663 C-11.48792221 40.64178155 -11.49789227 38.67808842 -11.50764465 36.71443176 C-11.52743881 35.5135643 -11.54723297 34.31269684 -11.56762695 33.07543945 C-11.58428154 31.49325371 -11.58428154 31.49325371 -11.60127258 29.87910461 C-12.06367002 26.54025574 -12.91170397 24.638706 -15 22 C-17.9106227 21.56325389 -20.17516565 21.4323019 -23.0625 21.5625 C-24.16174805 21.57120117 -24.16174805 21.57120117 -25.28320312 21.58007812 C-29.60867026 21.56708397 -29.60867026 21.56708397 -33 24 C-34.01540719 26.99194496 -34.12605521 29.77018638 -34.12863445 32.91355801 C-34.1318589 33.90772305 -34.13508335 34.90188809 -34.1384055 35.92617935 C-34.1368569 37.0161467 -34.1353083 38.10611405 -34.13371277 39.22911072 C-34.13597833 40.38872946 -34.13824388 41.5483482 -34.14057809 42.7431069 C-34.14581869 45.96247409 -34.14656205 49.18180623 -34.14538372 52.40117633 C-34.14517981 55.87294915 -34.15069748 59.34471361 -34.15544128 62.81648254 C-34.16375022 69.61821688 -34.16649622 76.41994254 -34.16705366 83.22168153 C-34.16752866 88.74929104 -34.16958258 94.27689769 -34.17275429 99.8045063 C-34.18156112 115.47140491 -34.18617356 131.13829667 -34.18542381 146.80519777 C-34.18536388 148.07229504 -34.18536388 148.07229504 -34.18530273 149.36499023 C-34.18526185 150.21075127 -34.18522097 151.05651231 -34.18517885 151.92790247 C-34.18477226 165.63978475 -34.19434513 179.35163959 -34.2084411 193.06351393 C-34.22279584 207.13797111 -34.2297118 221.2124149 -34.22884732 235.2868796 C-34.22851507 243.19058775 -34.23127477 251.09426711 -34.24202538 258.99796867 C-34.25111846 265.72624744 -34.25331543 272.45448437 -34.24651595 279.18276661 C-34.24324485 282.61626991 -34.24321528 286.0496929 -34.2518692 289.48318863 C-34.25954472 293.20350016 -34.25497372 296.92359895 -34.24723816 300.64390564 C-34.25238172 301.73164227 -34.25752529 302.8193789 -34.26282471 303.94007725 C-34.25822592 304.93685004 -34.25362712 305.93362283 -34.24888897 306.96060085 C-34.24910634 307.81925855 -34.24932371 308.67791625 -34.24954766 309.56259388 C-33.96286442 312.36271429 -33.24387302 314.480134 -32 317 C-28.98109074 318.50945463 -25.87286494 318.30648821 -22.5625 318.375 C-21.88123047 318.41238281 -21.19996094 318.44976563 -20.49804688 318.48828125 C-18.24229363 318.5829581 -18.24229363 318.5829581 -15 318 C-12.13105767 314.34932683 -11.61576232 311.49742071 -11.56762695 306.92456055 C-11.54783279 305.72369308 -11.52803864 304.52282562 -11.50764465 303.28556824 C-11.50125473 301.99894791 -11.49486481 300.71232758 -11.48828125 299.38671875 C-11.47142442 298.04863343 -11.45327282 296.71056384 -11.43388367 295.37251282 C-11.38648579 291.86271076 -11.35661091 288.35297253 -11.33044434 284.84295654 C-11.30058686 281.25650518 -11.2542346 277.67026912 -11.20898438 274.08398438 C-11.12151563 267.05597279 -11.06148594 260.02847921 -11 253 C-2.42 253 6.16 253 15 253 C15.04214205 260.46148346 15.08218903 267.9225264 15.10350037 275.38402557 C15.11398556 278.85999231 15.12795538 282.33585873 15.15087891 285.81176758 C15.17711576 289.81592686 15.18653631 293.81998281 15.1953125 297.82421875 C15.20563507 299.04767502 15.21595764 300.27113129 15.22659302 301.53166199 C15.22812147 313.47338282 15.04676607 325.48861912 7 335 C-1.26277732 342.45703804 -11.45345747 344.56772371 -22.3125 344.4375 C-23.22749268 344.42775146 -24.14248535 344.41800293 -25.08520508 344.40795898 C-36.69432053 344.10571831 -45.11497051 341.63754744 -53.87890625 333.8046875 C-59.78654042 325.99311966 -60.58261198 317.93315264 -60.50793457 308.3996582 C-60.51729451 306.5475761 -60.51729451 306.5475761 -60.52684355 304.65807819 C-60.53997286 301.25638669 -60.53533685 297.85558735 -60.52289867 294.45395136 C-60.5138094 290.77561639 -60.52783703 287.09735665 -60.53881836 283.41903687 C-60.556567 276.22335819 -60.55277997 269.02784679 -60.5411678 261.83216166 C-60.53211931 255.9819761 -60.53091558 250.13183729 -60.53526306 244.28164673 C-60.53587599 243.44772976 -60.53648893 242.6138128 -60.53712043 241.75462562 C-60.53839939 240.06032426 -60.53969624 238.36602291 -60.5410108 236.67172158 C-60.55240589 220.79938552 -60.53931973 204.92714201 -60.51780933 189.05482113 C-60.49993931 175.44763391 -60.50304372 161.8405832 -60.52148438 148.23339844 C-60.54291004 132.41628746 -60.55130735 116.59925752 -60.53903532 100.78213406 C-60.53776118 99.09420714 -60.53650369 97.40628021 -60.53526306 95.71835327 C-60.53464596 94.88794897 -60.53402886 94.05754467 -60.53339306 93.2019766 C-60.52994524 87.3615701 -60.53575622 81.52121516 -60.54518127 75.68081665 C-60.55642151 68.55934727 -60.55331882 61.43805415 -60.5320583 54.31660485 C-60.52157496 50.68592015 -60.51737922 47.05552891 -60.53065491 43.42484665 C-60.54484931 39.48318054 -60.52785464 35.54199073 -60.50793457 31.6003418 C-60.51685746 30.46122502 -60.52578034 29.32210825 -60.53497362 28.14847279 C-60.44846693 19.3101273 -58.82378804 11.80114242 -52.75 5.125 C-39.99629473 -6.43219561 -14.81354938 -8.49133813 0 0 Z " fill="#0F181F" transform="translate(1516,1110)"/>
<path d="M0 0 C24.75 0 49.5 0 75 0 C75 8.25 75 16.5 75 25 C58.83 25 42.66 25 26 25 C26 63.28 26 101.56 26 141 C40.19 141 54.38 141 69 141 C69 149.25 69 157.5 69 166 C54.81 166 40.62 166 26 166 C26 217.81 26 269.62 26 323 C42.17 323 58.34 323 75 323 C75 331.25 75 339.5 75 348 C50.25 348 25.5 348 0 348 C0 233.16 0 118.32 0 0 Z " fill="#0F1720" transform="translate(2512,1106)"/>
<path d="M0 0 C27.39 0 54.78 0 83 0 C83 8.25 83 16.5 83 25 C73.43 25 63.86 25 54 25 C54 131.59 54 238.18 54 348 C45.75 348 37.5 348 29 348 C29 241.41 29 134.82 29 25 C19.43 25 9.86 25 0 25 C0 16.75 0 8.5 0 0 Z " fill="#0F171F" transform="translate(2015,1106)"/>
<path d="M0 0 C8.25 0 16.5 0 25 0 C25 106.59 25 213.18 25 323 C41.5 323 58 323 75 323 C75 331.25 75 339.5 75 348 C50.25 348 25.5 348 0 348 C0 233.16 0 118.32 0 0 Z " fill="#0F171F" transform="translate(1943,1106)"/>
<path d="M0 0 C8.58 0 17.16 0 26 0 C26 114.84 26 229.68 26 348 C17.42 348 8.84 348 0 348 C0 233.16 0 118.32 0 0 Z " fill="#101720" transform="translate(2113,1106)"/>
<path d="M0 0 C8.25 0 16.5 0 25 0 C25 114.84 25 229.68 25 348 C16.75 348 8.5 348 0 348 C0 233.16 0 118.32 0 0 Z " fill="#0F171F" transform="translate(2897,1106)"/>
</svg>
